<?xml version="1.0" encoding="UTF-8"?> <svg xmlns="http://www.w3.org/2000/svg" width="1539" height="98" viewBox="0 0 1539 98" fill="none"><path d="M0.303711 1.29468C26.7623 1.29468 48.3286 22.765 48.3286 49.3282C48.3286 75.8914 26.8622 97.3616 0.303711 97.3616V1.29468Z" fill="#007848"></path><path d="M48.4282 49.1289C48.4282 22.6655 69.8946 1.09546 96.4531 1.09546V97.0625C69.8946 97.1624 48.4282 75.5922 48.4282 49.1289Z" fill="#007848"></path><path d="M384.902 1.29468C411.36 1.29468 432.927 22.765 432.927 49.3282C432.927 75.8914 411.46 97.3616 384.902 97.3616V1.29468Z" fill="#80DBD2"></path><path d="M433.026 49.1289C433.026 22.6655 454.493 1.09546 481.051 1.09546V97.0625C454.493 97.1624 433.026 75.5922 433.026 49.1289Z" fill="#80DBD2"></path><path d="M192.703 97.3616C192.703 70.7984 214.269 49.2283 240.827 49.2283C267.386 49.2283 288.952 70.7984 288.952 97.3616H192.703Z" fill="#F7C616"></path><path d="M240.628 49.1284C214.069 49.1284 192.503 27.5583 192.503 0.995117H288.652C288.752 27.5583 267.186 49.1284 240.628 49.1284Z" fill="#F7C616"></path><path d="M577.301 0.795898C578 26.9596 598.967 48.0304 625.126 48.8293C624.627 22.5657 603.46 1.39507 577.301 0.795898Z" fill="#007848"></path><path d="M577.301 97.0628C603.56 96.4636 624.627 75.2929 625.126 49.0293C598.967 49.8282 577.9 70.899 577.301 97.0628Z" fill="#007848"></path><path d="M961.1 97.0628C960.401 70.899 939.434 49.8282 913.275 49.0293C913.774 75.2929 934.941 96.4636 961.1 97.0628Z" fill="#FF80DF"></path><path d="M961.1 0.795898C934.841 1.39507 913.774 22.5657 913.275 48.8293C939.434 48.0304 960.501 26.9596 961.1 0.795898Z" fill="#FF80DF"></path><path d="M98.0506 48.2302C97.5514 48.33 97.0522 48.33 96.4531 48.33C96.4531 48.6296 96.4531 48.9292 96.4531 49.2288C96.4531 49.5283 96.4531 49.7281 96.4531 50.0277C122.612 50.1275 143.779 71.0985 144.378 97.0625C144.378 97.1624 144.478 97.1623 144.478 97.1623C170.937 97.1623 192.503 75.6921 192.503 49.1289C192.503 22.6655 171.036 1.09546 144.478 1.09546C144.478 1.09546 144.478 1.09548 144.378 1.19534C143.779 26.7599 123.411 47.3314 98.0506 48.2302Z" fill="#FF6712"></path><path d="M911.677 50.2274C912.176 50.1275 912.676 50.1275 913.275 50.1275C913.275 49.8279 913.275 49.5284 913.275 49.2288C913.275 48.9292 913.275 48.7295 913.275 48.4299C887.116 48.33 865.949 27.3591 865.35 1.39505C865.35 1.29519 865.25 1.29517 865.25 1.29517C838.791 1.29517 817.225 22.7655 817.225 49.3287C817.225 75.792 838.691 97.3621 865.25 97.3621C865.25 97.3621 865.25 97.3621 865.35 97.2622C865.949 71.5978 886.317 51.0263 911.677 50.2274Z" fill="#80DBD2"></path><path d="M288.652 97.2622H384.802V49.2288C384.802 22.6656 363.236 1.19534 336.777 1.19534C310.318 1.19534 288.752 22.7654 288.752 49.2288V97.2622H288.652Z" fill="#FF80DF"></path><path d="M528.977 1.09546C555.535 1.09546 577.001 22.5657 577.001 49.1289C577.001 75.6921 555.535 97.1623 528.977 97.1623V1.09546Z" fill="#FF80DF"></path><path d="M480.752 49.2292V97.2627H528.777C528.777 70.6995 507.31 49.2292 480.752 49.2292Z" fill="#F7C616"></path><path d="M480.752 49.2288V1.09546H528.777C528.777 27.6587 507.31 49.2288 480.752 49.2288Z" fill="#F7C616"></path><path d="M721.575 1.29492C748.034 1.29492 769.6 22.7652 769.6 49.3284C769.6 75.7917 748.134 97.3618 721.575 97.3618V1.29492Z" fill="#F7C616"></path><path d="M769.7 49.1291C769.7 22.6658 791.166 1.0957 817.725 1.0957V97.0627C791.166 97.1626 769.7 75.5925 769.7 49.1291Z" fill="#F7C616"></path><path d="M625.326 97.2622H721.475V49.2288C721.475 22.6656 699.909 1.19534 673.45 1.19534C646.992 1.19534 625.426 22.7654 625.426 49.2288V97.2622H625.326Z" fill="#FF6712"></path><path d="M961.999 1.29395C988.457 1.29395 1010.02 22.7642 1010.02 49.3274C1010.02 75.7908 988.557 97.3609 961.999 97.3609V1.29395Z" fill="#007848"></path><path d="M1010.12 49.1281C1010.12 22.6648 1031.59 1.09473 1058.15 1.09473V97.0618C1031.59 97.1616 1010.12 75.5915 1010.12 49.1281Z" fill="#007848"></path><path d="M1346.6 1.29395C1373.06 1.29395 1394.62 22.7642 1394.62 49.3274C1394.62 75.7908 1373.16 97.3609 1346.6 97.3609V1.29395Z" fill="#80DBD2"></path><path d="M1394.72 49.1281C1394.72 22.6648 1416.19 1.09473 1442.75 1.09473V97.0618C1416.19 97.1616 1394.72 75.5915 1394.72 49.1281Z" fill="#80DBD2"></path><path d="M1154.4 97.3616C1154.4 70.7984 1175.96 49.2283 1202.52 49.2283C1229.08 49.2283 1250.65 70.7984 1250.65 97.3616H1154.4Z" fill="#F7C616"></path><path d="M1202.32 49.1284C1175.76 49.1284 1154.2 27.5583 1154.2 0.995117H1250.35C1250.45 27.5583 1228.88 49.1284 1202.32 49.1284Z" fill="#F7C616"></path><path d="M1059.75 48.2294C1059.25 48.3293 1058.75 48.3292 1058.15 48.3292C1058.15 48.6288 1058.15 48.9284 1058.15 49.228C1058.15 49.5276 1058.15 49.7274 1058.15 50.0269C1084.31 50.1268 1105.47 71.0977 1106.07 97.0618C1106.07 97.1616 1106.17 97.1616 1106.17 97.1616C1132.63 97.1616 1154.2 75.6913 1154.2 49.1281C1154.2 22.6648 1132.73 1.09473 1106.17 1.09473C1106.17 1.09473 1106.17 1.09475 1106.07 1.19461C1105.47 26.7592 1085.11 47.3307 1059.75 48.2294Z" fill="#FF6712"></path><path d="M1250.35 97.2622H1346.5V49.2287C1346.5 22.6655 1324.93 1.19531 1298.47 1.19531C1271.91 1.19531 1250.45 22.7654 1250.45 49.2287V97.2622H1250.35Z" fill="#FF80DF"></path><path d="M1490.67 1.09473C1517.23 1.09473 1538.7 22.565 1538.7 49.1281C1538.7 75.6913 1517.23 97.1616 1490.67 97.1616V1.09473Z" fill="#FF80DF"></path><path d="M1442.45 49.2285V97.2619H1490.47C1490.57 70.6987 1469.01 49.2285 1442.45 49.2285Z" fill="#F7C616"></path><path d="M1442.45 49.228V1.09473H1490.47C1490.57 27.6579 1469.01 49.228 1442.45 49.228Z" fill="#F7C616"></path></svg> 