<?xml version="1.0" encoding="UTF-8"?><svg id="a" xmlns="http://www.w3.org/2000/svg" width="88.053mm" height="88.053mm" xmlns:xlink="http://www.w3.org/1999/xlink" viewBox="0 0 249.599 249.599"><defs><clipPath id="b"><path d="M222.094,131.761c0,53.734-43.56,97.294-97.294,97.294S27.506,185.495,27.506,131.761,57.466,20.545,111.2,20.545s110.894,57.482,110.894,111.216Z" fill="none"/></clipPath><clipPath id="c"><rect x="12.759" y="20.168" width="204.411" height="243.845" fill="none"/></clipPath></defs><circle cx="124.8" cy="131.761" r="97.294" fill="#ffb187"/><g clip-path="url(#b)"><g clip-path="url(#c)"><path d="M184.454,105.136c0-22.863-13.813-40.55-28.045-49.628-28.601-18.242-63.555-4.404-81.487,8.982-8.621,6.436-28.045,20.984-28.045,45.137,0,24.928,12.556,45.137,28.045,45.137h82.801v-.054c14.878-1.215,26.73-22.944,26.73-49.573Z" fill="#25241d"/><path d="M177.766,283.848H53.565s0-48.72,0-48.72c0-27.269,22.106-49.375,49.375-49.375h25.451c27.269,0,49.375,22.106,49.375,49.375v48.72Z" fill="#ca65b0"/><path d="M129.154,164.716c-.945-13.805,6.625-23.236,8.214-25.132h-44.867s0,.021,0,.021c2.063,2.59,7.71,10.38,8.198,21.886.572,13.477-6.329,22.755-8.198,25.111,2.28,1.872,11.432,8.94,24.753,8.361,11.365-.493,19.05-6.262,21.576-8.34h0c-1.961-2.055-8.845-9.762-9.676-21.907Z" fill="#b46250"/><path d="M156.409,106.572c0,22.502-18.241,40.743-40.743,40.743-22.502,0-40.743-18.241-40.743-40.743,0-22.502,18.241-40.743,40.743-40.743,22.502,0,40.743,18.241,40.743,40.743Z" fill="#b46250"/><ellipse cx="106.465" cy="59.914" rx="45.137" ry="28.045" transform="translate(-9.715 22.141) rotate(-11.358)" fill="#25241d"/><path d="M110.085,113.289c-.777,0-1.493-.409-1.885-1.086-.403-.693-.394-1.537.018-2.22l7.85-15.506c.296-.585,1.011-.82,1.597-.523.585.296.82,1.011.523,1.596l-7.777,15.361h6.717c.656,0,1.188.532,1.188,1.188,0,.656-.532,1.188-1.188,1.188h-6.976c-.022,0-.045.001-.067.001Z" fill="#211f19"/><path d="M101.447,101.496c-.284,0-.568-.014-.855-.043-3.84-.389-7.107-3.431-7.943-7.399-.135-.642.275-1.272.917-1.408.642-.135,1.272.275,1.408.918.625,2.967,3.034,5.239,5.857,5.525,3.394.344,6.597-2.173,7.294-5.728.126-.644.751-1.063,1.395-.937.644.126,1.063.751.937,1.395-.873,4.451-4.739,7.678-9.01,7.678Z" fill="#211f19"/><path d="M131.646,101.496c-.284,0-.568-.014-.855-.043-3.841-.389-7.107-3.431-7.943-7.399-.135-.642.275-1.272.917-1.408.643-.135,1.272.275,1.408.918.625,2.967,3.034,5.239,5.857,5.525,3.393.344,6.596-2.173,7.294-5.728.126-.644.75-1.063,1.395-.937.644.126,1.063.751.937,1.395-.873,4.451-4.739,7.678-9.01,7.678Z" fill="#211f19"/><path d="M91.841,108.708c0-3.69,2.991-6.681,6.681-6.681,3.69,0,6.681,2.991,6.681,6.681s-2.991,6.681-6.681,6.681c-3.69,0-6.681-2.991-6.681-6.681Z" fill="#d14523"/><path d="M125.579,108.708c0-3.69,2.991-6.681,6.681-6.681,3.69,0,6.681,2.991,6.681,6.681,0,3.69-2.991,6.681-6.681,6.681-3.69,0-6.681-2.991-6.681-6.681Z" fill="#d14523"/><path d="M114.798,122.495c-.147,0-.294-.003-.441-.009-6.489-.251-11.817-5.889-11.876-12.567-.006-.656.522-1.193,1.178-1.198.003,0,.007,0,.011,0,.651,0,1.182.525,1.188,1.178.048,5.429,4.351,10.011,9.591,10.214,2.643.1,5.293-.959,7.27-2.912,2.081-2.056,3.184-4.79,3.106-7.698-.017-.656.5-1.202,1.156-1.219.011,0,.022,0,.032,0,.641,0,1.17.511,1.187,1.156.094,3.52-1.295,6.965-3.812,9.452-2.333,2.305-5.442,3.604-8.591,3.604Z" fill="#211f19"/><ellipse cx="77.551" cy="130.864" rx="5.92" ry="9.557" fill="#f2c14a"/><path d="M160.029,130.864c0,5.278-2.651,9.557-5.92,9.557-3.27,0-5.92-4.279-5.92-9.557s2.651-9.557,5.92-9.557,5.92,4.279,5.92,9.557Z" fill="#f2c14a"/><path d="M201.107,252.468h-49.361v-60.851s9.969,0,9.969,0c21.756,0,39.392,17.637,39.392,39.392v21.459Z" fill="#ca65b0"/><path d="M28.884,252.468h49.361v-60.851s-9.969,0-9.969,0c-21.756,0-39.392,17.637-39.392,39.392v21.459Z" fill="#ca65b0"/><path d="M89.159,283.848h-26.386c0-30.606,0-61.212,0-91.818,8.795-1.441,17.591-2.881,26.386-4.322v96.14Z" fill="#015e3a"/><path d="M142.658,283.848h26.386c0-30.606,0-61.212,0-91.818-8.795-1.441-17.591-2.881-26.386-4.322v96.14Z" fill="#015e3a"/><rect x="27.227" y="247.577" width="25.601" height="6.594" fill="#fff"/><rect x="175.69" y="247.577" width="25.601" height="6.594" fill="#fff"/></g></g></svg>