<?xml version="1.0" encoding="UTF-8"?><svg id="a" xmlns="http://www.w3.org/2000/svg" width="88.053mm" height="88.053mm" viewBox="0 0 249.599 249.599"><circle cx="126.441" cy="125.068" r="85.523" fill="#cbe2d9"/><path d="M127.906,95.237c-2.083-2.924-4.609-5.535-7.508-7.759-2.689-2.063-5.77-3.74-9.157-4.985-3.31-1.216-6.863-1.905-10.564-2.049-.439-.017-.879-.025-1.321-.025-3.217,0-6.408.443-9.485,1.316-3.414.969-6.621,2.433-9.531,4.35-2.974,1.959-5.572,4.275-7.723,6.884-2.304,2.796-4.177,5.934-5.57,9.324-1.316,3.204-2.128,6.712-2.416,10.428-.28,3.609.023,7.271.903,10.886.829,3.414,2.182,6.681,4.021,9.708,1.823,3.006,4.05,5.684,6.615,7.96,2.69,2.384,5.612,4.298,8.688,5.687,3.387,1.528,6.993,2.524,10.714,2.957,1.245.145,2.525.218,3.804.218,2.349,0,4.748-.245,7.132-.73,3.416-.693,6.738-1.933,9.877-3.685,3.035-1.692,5.79-3.826,8.19-6.342,2.448-2.564,4.459-5.415,5.98-8.474,1.634-3.288,2.725-6.681,3.243-10.083.301-1.974.449-3.782.453-5.555-.006-3.694-.569-7.288-1.674-10.684-1.109-3.41-2.682-6.555-4.672-9.348Z" fill="#222426"/><path d="M156.379,77.658v22.21c0,1.978-.014,4.1-.125,6.227-.107,2.04-.287,4.114-.531,6.164l-.133,1.048s-.159,1.106-.24,1.629c-.163,1.045-.345,2.087-.544,3.124-.772,4.018-1.821,8.012-3.115,11.873-.651,1.945-1.374,3.886-2.149,5.77l-.427,1.014c-.208.478-.417.954-.633,1.428-.415.917-.845,1.826-1.289,2.729-1.788,3.63-3.834,7.171-6.078,10.524-1.143,1.708-2.341,3.377-3.559,4.959-.056.067-.705.891-.705.891-.324.405-.653.811-.984,1.211-.642.776-1.296,1.542-1.964,2.296-2.694,3.048-5.617,5.941-8.689,8.604-.794.688-1.601,1.364-2.42,2.025-.381.309-.766.615-1.156.918l-.172.134.123.156-.258-.052-.673.51c-1.621,1.218-3.315,2.403-5.035,3.524-4.514,2.942-9.407,5.38-14.139,7.736l-2.096,1.047-1.92-.948c-2.761-1.36-5.616-2.765-8.354-4.269-3.54-1.942-6.981-4.137-10.226-6.524-.368-.27-.736-.544-1.1-.82l-.469-.359-.509-.399c-.799-.63-1.586-1.272-2.363-1.929-1.477-1.247-2.946-2.57-4.363-3.931-2.847-2.735-5.548-5.686-8.023-8.769-.283-.353-.56-.706-.879-1.113l-.692-.913c-.581-.777-1.151-1.563-1.707-2.358-1.13-1.613-2.221-3.281-3.241-4.957-2.047-3.365-3.897-6.895-5.497-10.493l-.58-1.334-.101.054-.087.015.006-.008.169-.087-.409-.996c-.378-.935-.74-1.876-1.089-2.823-.671-1.835-1.291-3.705-1.84-5.557-1.132-3.822-2.024-7.757-2.647-11.694-.072-.454-.142-.907-.207-1.362l-.161-1.208c-.121-.986-.227-1.973-.318-2.963-.182-2.022-.301-4.072-.35-6.091-.066-2.67-.052-5.389-.039-8.018.005-1.106.012-2.211.012-3.315v-14.007c-.003-.246-.004-.491.003-.738.004-.236.015-.471.036-.705l.037-.308c.089-.454.186-.902.324-1.344.068-.219.147-.433.236-.673l.118-.254c.21-.431.453-.855.723-1.258,0,0,.231-.324.261-.373.092-.112.186-.223.283-.331.315-.355.665-.696,1.121-1.083l.158-.127s.427-.291.572-.382c.374-.234.766-.445,1.166-.629.03-.01.359-.138.359-.138.222-.079.448-.149.673-.213.31-.087.621-.165.932-.242l.598-.152c1.149-.302,2.293-.622,3.432-.96,9.383-2.789,18.35-6.777,26.649-11.853,4.609-2.818,8.984-6.11,13.214-9.292l3.081-2.313c.46-.333.834-.56,1.198-.724.04-.008.116-.032.345-.108l.163-.054c.137-.039.274-.073.533-.125.067-.012.129-.023.179-.037.196-.018.394-.027.591-.027.205,0,.409.01.611.029.057.017.128.03.213.046l.173.034c.138.033.275.07.528.15.179.061.253.086.292.096.549.236,1.315.811,1.932,1.275l6.134,4.601c7.131,5.348,14.568,9.761,22.105,13.117,4.729,2.106,9.511,3.875,14.212,5.26,1.18.348,2.367.676,3.558.983l.411.104c.315.079.631.158.944.252.183.056.365.119.67.227l.168.068.22.104c.413.203.815.433,1.192.682l.181.131c.155.115.231.171.279.198.16.134.318.271.47.413.332.311.634.643.976,1.049l.156-.122-.022.309c.147.212.287.429.417.65.115.195.225.393.328.596l.169.349.216-.002-.137.194.132.372c.083.248.156.5.221.752.056.224.105.449.146.678l.025.147.196-.031-.174.189c.027.342.045.682.048,1.025Z" fill="#ffb187"/><path d="M161.145,94.625c-.005-1.194-.009-2.388-.009-3.581v-13.124c-.005-3.525-1.284-6.825-3.603-9.291-2.578-2.741-6.111-3.68-9.526-4.588-.956-.253-1.909-.507-2.842-.798-9.318-2.909-18.241-7.109-26.523-12.481-3.746-2.429-7.372-5.174-10.878-7.828-.873-.661-1.746-1.322-2.621-1.978-1.674-1.255-3.746-1.947-5.833-1.947-1.937,0-3.775.581-5.312,1.681,0,0-1.978,1.491-2.902,2.191-2.732,2.073-5.559,4.217-8.427,6.192-8.157,5.619-16.96,10.068-26.162,13.224-2.344.804-4.748,1.539-7.149,2.182l-.298.08c-1.98.529-4.025,1.077-5.783,2.339-3.546,2.547-5.597,6.47-5.629,10.763-.018,2.588-.012,5.177-.005,7.765l.005,15.797c.006,8.147,1.047,16.238,3.091,24.049,2.104,8.04,5.275,15.795,9.428,23.048,4.126,7.211,9.193,13.857,15.062,19.757,5.948,5.98,12.673,11.14,19.992,15.336,2.286,1.311,4.677,2.506,7.07,3.704.648.324,1.295.653,1.942.983,1.305.664,2.61,1.328,3.931,1.954.396.187.779.279,1.171.279.74,0,1.387-.327,2.073-.673l5.044-2.519c1.624-.807,3.25-1.614,4.849-2.473,7.415-3.98,14.295-8.968,20.451-14.827,6.002-5.712,11.247-12.225,15.592-19.362,4.319-7.095,7.692-14.755,10.027-22.769,2.362-8.108,3.625-16.534,3.754-25.042.04-2.68.031-5.36.021-8.04ZM156.504,76.445l-.174.188c.027.342.045.682.048,1.025v22.21c0,1.978-.014,4.1-.125,6.227-.107,2.04-.287,4.114-.531,6.164l-.133,1.048s-.159,1.106-.24,1.629c-.163,1.045-.345,2.087-.544,3.124-.772,4.018-1.821,8.012-3.115,11.872-.651,1.945-1.374,3.886-2.149,5.77l-.427,1.014c-.208.478-.417.954-.633,1.428-.415.917-.845,1.826-1.289,2.729-1.789,3.63-3.834,7.171-6.078,10.524-1.143,1.708-2.341,3.377-3.559,4.959-.056.067-.705.891-.705.891-.324.406-.653.811-.984,1.211-.642.776-1.296,1.542-1.964,2.296-2.694,3.048-5.617,5.941-8.689,8.604-.794.688-1.601,1.364-2.42,2.025-.381.309-.766.615-1.156.918l-.172.134.123.156-.258-.052-.673.51c-1.621,1.218-3.315,2.403-5.035,3.524-4.514,2.942-9.407,5.38-14.139,7.736l-2.096,1.047-1.92-.948c-2.761-1.36-5.616-2.765-8.354-4.269-3.54-1.942-6.981-4.137-10.226-6.524-.368-.27-.736-.544-1.1-.82l-.469-.359-.509-.399c-.799-.63-1.586-1.272-2.363-1.929-1.477-1.247-2.945-2.57-4.363-3.931-2.847-2.735-5.548-5.686-8.023-8.769-.283-.353-.56-.706-.879-1.113l-.692-.913c-.581-.777-1.151-1.563-1.707-2.358-1.13-1.613-2.221-3.281-3.241-4.957-2.047-3.365-3.897-6.895-5.497-10.493l-.58-1.334-.101.054-.086.015s0,0,0,0l.006-.007.169-.087-.409-.996c-.378-.935-.74-1.876-1.089-2.823-.672-1.835-1.291-3.705-1.84-5.557-1.133-3.822-2.023-7.757-2.647-11.694-.072-.454-.142-.907-.207-1.362l-.161-1.208c-.121-.986-.227-1.973-.318-2.963-.182-2.022-.301-4.072-.35-6.091-.066-2.67-.052-5.389-.039-8.018.005-1.106.012-2.211.012-3.315v-14.007c-.003-.246-.004-.491.003-.738.004-.236.015-.471.036-.705l.037-.308c.089-.454.186-.902.324-1.344.068-.219.147-.433.236-.673l.117-.254c.211-.431.453-.855.723-1.258,0,0,.231-.324.261-.373.092-.112.186-.223.283-.331.315-.355.665-.696,1.121-1.083l.158-.127s.427-.291.572-.382c.375-.234.766-.445,1.166-.629.03-.01.359-.138.359-.138.222-.079.448-.149.673-.213.31-.086.621-.165.932-.242l.598-.152c1.149-.302,2.293-.622,3.432-.96,9.383-2.789,18.35-6.777,26.649-11.853,4.609-2.818,8.984-6.11,13.214-9.292l3.081-2.313c.46-.333.834-.56,1.198-.724.04-.008.116-.032.345-.108l.163-.054c.137-.039.274-.073.533-.125.067-.012.129-.023.179-.037.196-.018.394-.027.591-.027.205,0,.409.01.611.029.057.017.128.03.213.046l.173.034c.138.033.275.07.528.15.18.061.253.086.292.096.549.236,1.315.811,1.932,1.275l6.134,4.601c7.131,5.348,14.568,9.761,22.105,13.117,4.729,2.106,9.511,3.875,14.212,5.26,1.18.348,2.367.676,3.558.983l.411.104c.315.079.631.158.944.252.183.055.365.119.67.227l.168.068.22.104c.413.203.815.433,1.192.682l.181.131c.155.115.231.171.279.198.16.134.318.271.47.413.332.311.634.643.976,1.049l.156-.122-.022.309c.147.212.287.429.417.65.115.195.225.393.328.596l.169.349.216-.002-.137.194.132.372c.083.248.156.5.221.752.056.224.105.449.146.678l.025.147.195-.031s0,0,0,0ZM49.277,136.31h0s0,0,0,0h0s0,0,0,0Z" fill="#222426"/><path d="M127.906,95.237c-2.083-2.924-4.609-5.535-7.508-7.759-2.689-2.063-5.77-3.74-9.157-4.985-3.31-1.216-6.863-1.905-10.564-2.049-.439-.017-.879-.025-1.321-.025-3.217,0-6.408.443-9.485,1.316-3.414.969-6.621,2.433-9.531,4.35-2.974,1.959-5.572,4.275-7.723,6.884-2.304,2.796-4.177,5.934-5.57,9.324-1.316,3.204-2.128,6.712-2.416,10.428-.28,3.609.023,7.271.903,10.886.829,3.414,2.182,6.681,4.021,9.708,1.823,3.006,4.05,5.684,6.615,7.96,2.69,2.384,5.612,4.298,8.688,5.687,3.387,1.528,6.993,2.524,10.714,2.957,1.245.145,2.525.218,3.804.218,2.349,0,4.748-.245,7.132-.73,3.416-.693,6.738-1.933,9.877-3.685,3.035-1.692,5.79-3.826,8.19-6.342,2.448-2.564,4.459-5.415,5.98-8.474,1.634-3.288,2.725-6.681,3.243-10.083.301-1.974.449-3.782.453-5.555-.006-3.694-.569-7.288-1.674-10.684-1.109-3.41-2.682-6.555-4.672-9.348Z" fill="#ff6712"/><path d="M115.17,104.052c-.625,0-1.209.242-1.644.682l-17.944,18.098-.856.852-8.618-8.544c-.439-.436-1.065-.686-1.719-.686s-1.24.246-1.649.692c-.903.984-.9,2.459.006,3.357l10.319,10.231c.436.434,1.052.683,1.688.683.643,0,1.238-.243,1.675-.684l18.785-18.939c.553-.55,1.107-1.102,1.677-1.699.452-.455.701-1.104.684-1.779-.014-.629-.261-1.193-.691-1.588-.475-.436-1.083-.675-1.714-.675Z" fill="#222426"/><path d="M127.906,95.237c-2.083-2.924-4.609-5.535-7.508-7.759-2.689-2.063-5.77-3.74-9.157-4.985-3.31-1.216-6.863-1.905-10.564-2.049-.439-.017-.879-.025-1.321-.025-3.217,0-6.408.443-9.485,1.316-3.414.969-6.621,2.433-9.531,4.35-2.974,1.959-5.572,4.275-7.723,6.884-2.304,2.796-4.177,5.934-5.57,9.324-1.316,3.204-2.128,6.712-2.416,10.428-.28,3.609.023,7.271.903,10.886.829,3.414,2.182,6.681,4.021,9.708,1.823,3.006,4.05,5.684,6.615,7.96,2.69,2.384,5.612,4.298,8.688,5.687,3.387,1.528,6.993,2.524,10.714,2.957,1.245.145,2.525.218,3.804.218,2.349,0,4.748-.245,7.132-.73,3.416-.693,6.738-1.933,9.877-3.685,3.035-1.692,5.79-3.826,8.19-6.342,2.448-2.564,4.459-5.415,5.98-8.474,1.634-3.288,2.725-6.681,3.243-10.083.301-1.974.449-3.782.453-5.555-.006-3.694-.569-7.288-1.674-10.684-1.109-3.41-2.682-6.555-4.672-9.348ZM123.24,133.679c-.241.305-.486.606-.736.903-1.025,1.211-2.15,2.357-3.346,3.408-.294.26-.597.515-.901.764l-.329.267c-.032.021-.097.069-.254.197l.074.099v.017l-.093-.102c-.631.475-1.282.927-1.947,1.353-1.462.938-3.022,1.768-4.632,2.466-2.442.999-5.006,1.698-7.62,2.078-1.342.167-2.709.252-4.064.252s-2.714-.085-4.055-.251c-2.627-.382-5.199-1.084-7.643-2.087-1.405-.609-2.767-1.317-4.053-2.105-.684-.42-1.362-.871-2.014-1.342l-.63-.466c-.306-.242-.608-.487-.906-.739-1.211-1.027-2.358-2.151-3.408-3.345-.261-.296-.514-.597-.764-.902,0,0-.407-.515-.464-.586l-.004.003-.009-.02c-.475-.633-.927-1.282-1.355-1.948-.936-1.459-1.764-3.015-2.459-4.619-1.006-2.454-1.708-5.034-2.089-7.663-.329-2.676-.329-5.39,0-8.062.381-2.632,1.083-5.211,2.087-7.66.61-1.408,1.32-2.774,2.109-4.062.424-.691.874-1.369,1.34-2.015l.478-.644c.239-.301.48-.599.728-.892,1.028-1.213,2.153-2.36,3.343-3.407.297-.261.599-.516.904-.766,0,0,.52-.411.589-.467l-.08-.051v-.063l.093.105c.633-.475,1.282-.926,1.949-1.353,1.451-.933,3.005-1.76,4.613-2.457,2.448-1.004,5.022-1.707,7.645-2.088,1.34-.166,2.707-.251,4.057-.251s2.722.085,4.06.251c2.618.381,5.182,1.08,7.62,2.078,1.413.611,2.783,1.323,4.073,2.113.684.42,1.362.871,2.014,1.341l.458.338.119-.159h0s.063.296.063.296c.302.24.601.482.895.732,1.211,1.025,2.358,2.149,3.408,3.343.26.296.515.597.766.903l.48.6-.004.003c.478.637.932,1.292,1.353,1.948.934,1.455,1.763,3.012,2.463,4.624.998,2.437,1.698,4.998,2.079,7.608.168,1.337.254,2.711.256,4.083-.001,1.373-.088,2.747-.256,4.08-.381,2.614-1.082,5.176-2.079,7.61-.61,1.408-1.32,2.774-2.109,4.062-.418.683-.87,1.361-1.343,2.016l-.467.633Z" fill="#222426"/></svg>