<?xml version="1.0" encoding="UTF-8"?><svg id="a" xmlns="http://www.w3.org/2000/svg" width="88.053mm" height="88.053mm" xmlns:xlink="http://www.w3.org/1999/xlink" viewBox="0 0 249.599 249.599"><defs><clipPath id="b"><path d="M222.094-132.521c0,53.734-43.56,97.294-97.294,97.294S27.506-78.787,27.506-132.521s29.96-111.216,83.694-111.216,110.894,57.482,110.894,111.216Z" fill="none"/></clipPath><clipPath id="c"><rect x="12.759" y="-244.114" width="204.411" height="243.845" fill="none"/></clipPath></defs><path d="M112.293,42.255c-28.199,0-51.078,22.879-51.078,51.078v12.982c0,16.104-5.498,31.746-15.536,44.303l-5.959,7.449c-.78.993-1.206,2.199-1.206,3.476,0,3.086,2.483,5.569,5.569,5.569h136.42c3.086,0,5.569-2.483,5.569-5.569,0-1.277-.426-2.483-1.206-3.476l-5.924-7.413c-10.074-12.592-15.572-28.199-15.572-44.338v-12.982c0-28.199-22.879-51.078-51.078-51.078Z" fill="#a9d6d2"/><g clip-path="url(#b)"><g clip-path="url(#c)"><path d="M177.766,19.566H53.565s0-48.72,0-48.72c0-27.269,22.106-49.375,49.375-49.375h25.451c27.269,0,49.375,22.106,49.375,49.375V19.566Z" fill="#ca65b0"/><path d="M54.648,77.474c-4.621,40.184,2.152,65.433,6.582,106.866,3.954,36.985.248,32.686,3.839,80.127,3.25,42.928,8.624,77.363,12.615,99.572h20.021c8.917-37.368,11.799-71.37,11.242-101.583-.363-19.672-2.02-28.855-2.742-50.289-1.246-37.005,1.624-71.068,6.582-101.584-.971,39.84,5.637,67.588,12.066,85.826,3.93,11.148,7.415,17.67,11.518,33.191,4.359,16.49,6.092,30.562,8.147,61.588,1.283,19.373,2.603,44.018,3.371,72.851,6.948,0,13.896,0,20.843,0,20.826-73.492,17.433-115.793,9.871-141.144-1.639-5.495-4.037-12.079-6.033-23.133-6.298-34.869,2.111-54.88,3.291-90.855.439-13.396-.003-32.675-4.388-56.323-37.57,0-75.14,0-112.709,0-1.17,5.391-2.87,14.076-4.113,24.891Z" fill="#ca65b0"/><polygon points="53.565 19.566 177.766 19.566 201.107 203.659 36.446 203.659 53.565 19.566" fill="#015e3a"/><path d="M28.884-11.814h24.681v53.8l38.936-26.9c1.694,6.521,3.388,13.042,5.081,19.564-10.361,13.549-41.97,53.3-57.061,46.429-6.669-3.036-8.098-14.259-10.597-35.832-2.755-23.778-2.116-43.57-1.04-57.061Z" fill="#b46250"/><path d="M201.107-11.814c.78,11.407.679,20.896.408,27.715-.919,23.106-4.354,29.8-5.706,32.199-3.821,6.777-8.796,10.808-14.673,15.08-10.407,7.566-27.065,18.379-51.103,29.228-2.007-6.719-4.015-13.437-6.022-20.156l52.416-37.225V-11.814h24.681Z" fill="#b46250"/><path d="M85.011,19.566l-16.253,8.072c-1.904.946-3.078,2.93-2.958,5.053.21,3.705,1.341,9.459,5.864,14.303,4.979,5.333,12.419,7.795,19.876,6.809,2.402-.318,4.446-1.91,5.413-4.131l5.771-13.247-17.713-16.859Z" fill="#80dad1"/><path d="M89.159,19.566h-26.386c0-30.606,0-61.212,0-91.818,8.795-1.441,17.591-2.881,26.386-4.322V19.566Z" fill="#015e3a"/><path d="M121.594,55.663h0c6.371,0,11.544,5.173,11.544,11.544v2.329h-6.593c-5.022,0-9.099-4.077-9.099-9.099v-.626c0-2.289,1.859-4.148,4.148-4.148Z" fill="#80dad1"/><path d="M142.658,19.566h26.386c0-30.606,0-61.212,0-91.818-8.795-1.441-17.591-2.881-26.386-4.322V19.566Z" fill="#015e3a"/><rect x="107.581" y="65.218" width="32.86" height="39.127" rx="16.43" ry="16.43" transform="translate(-23.227 54.986) rotate(-22.919)" fill="#80dad1"/><path d="M113.886,164.633c-.436,0-.855-.241-1.063-.657-4.201-8.402-12.195-20.084-26.417-28.024-6.416-3.582-13.416-6.005-20.805-7.201-.648-.105-1.088-.715-.983-1.363.105-.648.714-1.086,1.363-.983,7.663,1.241,14.925,3.754,21.583,7.472,14.75,8.235,23.033,20.336,27.384,29.036.293.587.056,1.301-.531,1.594-.171.085-.352.126-.53.126Z" fill="#211f19"/><path d="M113.071,143.439c-.442,0-.866-.247-1.071-.672-2.698-5.589-6.195-10.701-10.395-15.193-6.142-6.57-13.886-11.824-22.394-15.195-.61-.242-.909-.932-.667-1.542.242-.61.932-.909,1.542-.667,8.833,3.499,16.874,8.956,23.255,15.781,4.364,4.667,7.997,9.978,10.799,15.783.285.591.037,1.301-.554,1.586-.166.08-.342.118-.515.118Z" fill="#211f19"/><path d="M132.569,66.175l12.972-12.691c1.52-1.487,3.78-1.942,5.745-1.13,3.429,1.417,8.491,4.379,11.576,10.245,3.397,6.457,3.273,14.293-.112,21.009-1.091,2.163-3.267,3.569-5.683,3.752l-14.409,1.09-10.09-22.275Z" fill="#80dad1"/><rect x="83.471" y="4.489" width="32.86" height="39.127" rx="16.43" ry="16.43" transform="translate(-1.48 40.803) rotate(-22.919)" fill="#80dad1"/></g></g><path d="M121.879,34.843c0-1.561,1.277-2.838,2.838-2.838s2.838,1.277,2.838,2.838v8.584c30.008,1.49,53.915,26.284,53.915,56.682v12.982c0,14.827,5.037,29.192,14.295,40.756l5.924,7.413c1.596,1.986,2.447,4.469,2.447,7.023,0,6.207-5.037,11.244-11.244,11.244l-136.385.035c-6.207,0-11.244-5.037-11.244-11.244,0-2.554.851-5.037,2.447-7.023l5.924-7.413c9.293-11.563,14.33-25.965,14.33-40.791v-12.982c0-30.398,23.907-55.192,53.915-56.682v-.071s0-8.513,0-8.513ZM124.716,49.032c-28.199,0-51.078,22.879-51.078,51.078v12.982c0,16.104-5.498,31.746-15.536,44.303l-5.959,7.449c-.78.993-1.206,2.199-1.206,3.476,0,3.086,2.483,5.569,5.569,5.569h136.42c3.086,0,5.569-2.483,5.569-5.569,0-1.277-.426-2.483-1.206-3.476l-5.924-7.413c-10.074-12.592-15.572-28.199-15.572-44.338v-12.982c0-28.199-22.879-51.078-51.078-51.078ZM107.69,190.914c0,4.505,1.809,8.832,5.001,12.025s7.52,5.001,12.025,5.001,8.832-1.809,12.025-5.001,5.001-7.52,5.001-12.025c0-1.561,1.277-2.838,2.838-2.838s2.838,1.277,2.838,2.838c0,6.03-2.377,11.812-6.633,16.068-4.256,4.256-10.038,6.633-16.068,6.633s-11.812-2.377-16.068-6.633c-4.256-4.256-6.633-10.038-6.633-16.068,0-1.561,1.277-2.838,2.838-2.838s2.838,1.277,2.838,2.838h0Z"/></svg>