<?xml version="1.0" encoding="UTF-8"?><svg id="a" xmlns="http://www.w3.org/2000/svg" width="88.053mm" height="88.053mm" viewBox="0 0 249.599 249.599"><path d="M54.053,81.555c0-18.904,15.38-34.284,34.284-34.284s34.284,15.38,34.284,34.284-15.38,34.284-34.284,34.284-34.284-15.38-34.284-34.284Z" fill="#ff9a80"/><path d="M152.436,191.592c0,2.07-1.685,3.755-3.755,3.755H27.993c-2.07,0-3.755-1.685-3.755-3.755,0-27.518,22.388-49.905,49.906-49.905h28.386c27.519,0,49.906,22.388,49.906,49.905Z" fill="#ff9a80"/><path d="M98.502,126.327c22.195,0,40.253-18.058,40.253-40.254s-18.058-40.253-40.253-40.253-40.254,18.058-40.254,40.253,18.058,40.254,40.254,40.254ZM64.218,86.073c0-18.904,15.38-34.284,34.284-34.284s34.284,15.38,34.284,34.284-15.38,34.284-34.284,34.284-34.284-15.38-34.284-34.284Z"/><path d="M222.732,107.934h-26.831v-26.83c0-1.646-1.339-2.984-2.984-2.984s-2.984,1.339-2.984,2.984v26.83h-26.831c-1.646,0-2.984,1.339-2.984,2.984s1.339,2.985,2.984,2.985h26.831v26.83c0,1.646,1.339,2.984,2.984,2.984s2.984-1.339,2.984-2.984v-26.83h26.831c1.646,0,2.984-1.339,2.984-2.985s-1.339-2.984-2.984-2.984Z"/><path d="M112.695,140.234h-28.386c-30.811,0-55.876,25.065-55.876,55.875,0,5.362,4.362,9.725,9.725,9.725h120.688c5.362,0,9.725-4.362,9.725-9.725,0-30.81-25.065-55.875-55.876-55.875ZM162.601,196.109c0,2.07-1.685,3.755-3.755,3.755H38.158c-2.07,0-3.755-1.685-3.755-3.755,0-27.518,22.388-49.905,49.906-49.905h28.386c27.519,0,49.906,22.388,49.906,49.905Z"/></svg>