<?xml version="1.0" encoding="UTF-8"?><svg id="a" xmlns="http://www.w3.org/2000/svg" width="88.053mm" height="88.053mm" xmlns:xlink="http://www.w3.org/1999/xlink" viewBox="0 0 249.599 249.599"><defs><clipPath id="d"><path d="M222.094-401.885c0,53.734-43.56,97.294-97.294,97.294s-97.294-43.56-97.294-97.294,29.96-111.216,83.694-111.216,110.894,57.482,110.894,111.216Z" fill="none"/></clipPath><clipPath id="e"><rect x="12.759" y="-513.478" width="204.411" height="243.845" fill="none"/></clipPath></defs><path d="M43.824,83.709c0,29.178,23.737,52.915,52.915,52.915s52.915-23.737,52.915-52.915-23.737-52.915-52.915-52.915-52.915,23.737-52.915,52.915h0Z" fill="#e5ce8e"/><g id="b"><g id="c"><path d="M105.955,116.993c-6.606,0-11.979-5.372-11.979-11.979,0-1.653-1.339-2.995-2.995-2.995s-2.995,1.342-2.995,2.995c0,8.885,6.489,16.264,14.973,17.698v3.264c0,1.653,1.339,2.995,2.995,2.995s2.995-1.342,2.995-2.995v-3.264c8.484-1.434,14.973-8.81,14.973-17.698,0-9.909-8.059-17.968-17.968-17.968-6.606,0-11.979-5.372-11.979-11.979s5.372-11.979,11.979-11.979,11.979,5.372,11.979,11.979c0,1.653,1.339,2.995,2.995,2.995s2.995-1.342,2.995-2.995c0-8.885-6.489-16.264-14.973-17.698v-3.264c0-1.653-1.339-2.995-2.995-2.995s-2.995,1.342-2.995,2.995v3.264c-8.484,1.434-14.973,8.81-14.973,17.698,0,9.909,8.059,17.968,17.968,17.968,6.606,0,11.979,5.372,11.979,11.979s-5.372,11.979-11.979,11.979h0ZM55.046,90.041c0,28.072,22.837,50.909,50.909,50.909s50.909-22.837,50.909-50.909-22.837-50.909-50.909-50.909-50.909,22.837-50.909,50.909h0ZM49.056,90.041c0-31.375,25.523-56.898,56.898-56.898s56.898,25.523,56.898,56.898-25.523,56.898-56.898,56.898-56.898-25.523-56.898-56.898h0ZM43.455,192.88h0c-8.906-3.381-13.173-10.966-10.886-19.286,1.069-4.097,3.665-7.514,7.31-9.628,3.653-2.117,7.927-2.671,12.227-1.5l41.138,14.204c-.281-.868-.515-1.758-.653-2.68-1.195-8.64,4.848-16.635,13.455-17.821l50.921-7.19c9.364-1.336,19.528,3.71,26.296,12.934h31.381c1.656,0,2.995,1.342,2.995,2.995s-1.339,2.995-2.995,2.995h-32.941c-1,0-1.935-.5-2.492-1.327-4.48-6.69-12.835-12.88-21.406-11.667l-50.936,7.193c-5.345.74-9.092,5.705-8.355,11.041.434,2.941,2.099,5.492,4.609,7.025,1.97,1.246,4.267,1.758,6.519,1.428l38.134-5.39c1.632-.231,3.153.91,3.384,2.545.231,1.638-.91,3.153-2.548,3.384l-38.119,5.387c-.725.105-1.458.159-2.189.159-2.776,0-5.525-.782-7.954-2.222l-50.008-17.27c-2.554-.689-5.202-.35-7.463.961-2.252,1.303-3.857,3.42-4.531,5.992-1.461,5.328,1.24,9.864,7.115,12.098l74.19,24.772c2.827.922,7.774,1.081,10.715.308l53.706-11.413c.204-.045.413-.066.623-.066h29.947c1.656,0,2.995,1.342,2.995,2.995,0,1.653-1.339,2.995-2.995,2.995h-29.632s-53.257,11.311-53.257,11.311c-1.683.443-3.782.662-5.944.662-2.845,0-5.792-.377-8.032-1.105l-74.324-24.82h0Z" fill="#162b39"/></g></g><g clip-path="url(#d)"><g clip-path="url(#e)"><path d="M54.648-191.89c-4.621,40.184,2.152,65.433,6.582,106.866,3.954,36.985.248,32.686,3.839,80.127,3.25,42.928,8.624,77.363,12.615,99.572h20.021c8.917-37.368,11.799-71.37,11.242-101.583-.363-19.672-2.02-28.855-2.742-50.289-1.246-37.005,1.624-71.068,6.582-101.584-.971,39.84,5.637,67.588,12.066,85.826,3.93,11.148,7.415,17.67,11.518,33.191,4.359,16.49,6.092,30.562,8.147,61.588,1.283,19.373,2.603,44.018,3.371,72.851,6.948,0,13.896,0,20.843,0,20.826-73.492,17.433-115.793,9.871-141.144-1.639-5.495-4.037-12.079-6.033-23.133-6.298-34.869,2.111-54.88,3.291-90.855.439-13.396-.003-32.675-4.388-56.323-37.57,0-75.14,0-112.709,0-1.17,5.391-2.87,14.076-4.113,24.891Z" fill="#ca65b0"/><path d="M169.558,92.078v33.863h-50.781c.18-2.022.551-4.58,1.398-7.036.537-1.562,1.268-3.082,2.262-4.398,4.585-6.064,10.547-2.148,16.317-7.476,2.254-2.081,5.096-6.143,6.862-14.952h23.942Z" fill="#1b1b31"/><path d="M169.558,118.904v7.036h-50.781c.18-2.022.551-4.58,1.398-7.036h49.383Z" fill="#004d9c"/><path d="M136.924,115.281c-.15,0-.297-.061-.405-.175-3.149-3.356-6.774-6.977-7.466-7.309-.262-.044-.462-.272-.462-.547,0-.306.248-.555.555-.555.316,0,.708,0,4.569,3.903.855.864,1.694,1.734,2.349,2.417l-1.669-9.628c-.039-.226.065-.453.262-.571.196-.117.446-.102.626.039l5.931,4.633-2.991-9.75c-.062-.202-.004-.422.15-.566.154-.145.377-.189.575-.116l6.833,2.555-2.786-5.066c-.148-.269-.05-.606.219-.753.269-.148.606-.05.753.219l3.507,6.377c.112.203.085.455-.066.63-.152.175-.397.238-.614.157l-7.18-2.684,3.177,10.358c.071.231-.016.482-.216.62-.2.137-.465.129-.656-.02l-6.186-4.832,1.737,10.017c.042.241-.08.482-.299.591-.079.039-.163.058-.247.058ZM129.146,107.805h0,0Z" fill="#35a8e0"/><path d="M98.669,92.078v33.863h-48.909c.173-2.022.531-4.58,1.346-7.036.518-1.562,1.221-3.082,2.179-4.398,4.416-6.064,10.158-2.148,15.716-7.476,2.171-2.081,4.908-6.143,6.609-14.952h23.059Z" fill="#1b1b31"/><path d="M98.669,118.904v7.036h-48.909c.173-2.022.531-4.58,1.346-7.036h47.563Z" fill="#004d9c"/><path d="M67.238,115.271c-.15,0-.298-.062-.404-.179-3.025-3.347-6.511-6.963-7.186-7.306-.254-.046-.446-.269-.446-.535s.244-.544.544-.544c.325,0,.692,0,4.415,3.907.812.852,1.609,1.709,2.236,2.389l-1.606-9.62c-.037-.223.067-.446.263-.56.196-.114.441-.095.617.048l5.688,4.613-2.881-9.753c-.059-.199,0-.414.153-.555.153-.141.372-.181.566-.107l6.569,2.55-2.694-5.086c-.141-.266-.039-.595.226-.736.265-.141.595-.04.736.226l3.378,6.377c.106.201.077.447-.074.617-.151.17-.392.228-.604.146l-6.898-2.678,3.064,10.371c.067.229-.022.475-.22.607-.198.132-.46.12-.645-.03l-5.933-4.812,1.673,10.016c.04.239-.082.475-.3.58-.076.037-.157.054-.237.054ZM59.747,107.795h0,0Z" fill="#35a8e0"/></g></g></svg>