<svg width="237" height="278" viewBox="0 0 237 278" fill="none" xmlns="http://www.w3.org/2000/svg">
<path d="M55.0451 143.079H49.5343C50.3158 141.937 51.7386 141.336 53.1213 141.676C53.9629 141.897 54.6042 142.398 55.0451 143.079Z" fill="#B1E8D0"/>
<path d="M184.337 163.359L174.598 274.796H44.3041L42.5406 254.557C42.5406 254.557 152.435 261.831 182.995 150.935C186.582 137.849 182.574 181.935 184.337 163.359Z" fill="#59DDAA"/>
<path d="M52.0593 217.584C49.9752 217.404 47.7709 217.063 44.9053 216.502C40.8775 215.681 36.9899 214.639 33.7435 213.717L32.3007 213.316C27.5515 211.974 22.181 210.451 18.3936 207.104C17.592 206.403 16.8506 205.621 16.1492 204.84C15.3677 204.018 14.5862 203.196 13.7646 202.435C11.42 200.331 8.79486 197.926 5.62868 196.724L5.00747 196.483L4.98743 195.822C4.62673 180.713 7.65263 165.884 10.9591 152.117C11.5402 149.712 12.3217 146.586 13.2035 143.56C15.1673 136.867 17.3716 131.857 20.137 127.749C20.3574 127.429 20.5778 127.128 20.8183 126.827L21.1189 126.427C22.5016 124.563 23.7841 123.12 25.1267 121.918C28.1727 119.152 31.92 117.068 35.9679 115.866C37.7714 115.325 39.5549 114.964 41.2782 114.804C41.6991 114.764 42.2401 114.684 42.8814 114.604C45.1458 114.303 48.5524 113.842 52.8408 113.842C55.3858 113.842 57.9307 114.002 60.3955 114.343C62.2391 114.583 63.4615 114.604 64.6438 114.604C66.4273 114.624 68.1106 114.644 71.2768 115.505L71.4571 115.565L76.6873 119.493L76.7875 119.673C76.9278 119.894 77.1282 120.114 77.4288 120.335L78.5309 121.156L77.4087 121.958L76.5671 121.317L77.1482 122.118C76.3266 122.719 75.485 123.381 74.5031 124.242C69.5334 128.531 65.5656 134.021 63.0006 140.153C62.139 142.217 61.4175 144.422 60.8765 146.726C59.9948 150.413 59.594 154.141 59.7142 157.788C59.8144 160.533 60.1551 163.419 60.8564 167.166C62.3393 175.182 64.704 183.257 67.8701 191.133L68.2509 192.115L67.269 192.455C65.5456 193.057 63.722 193.518 61.8584 193.978C60.095 194.399 58.2113 194.88 56.3276 195.501L55.1253 195.902L55.005 194.64C54.2035 186.203 53.6223 177.426 53.2015 167.026C52.9009 159.812 52.7606 152.798 54.3437 146.245C54.3437 146.245 54.464 145.664 54.5041 145.504C54.8247 144.261 54.0832 142.999 52.8408 142.678C52.6604 142.638 52.4601 142.618 52.2797 142.618C51.2176 142.618 50.2958 143.32 50.0153 144.342C49.8149 145.123 49.6346 145.905 49.4742 146.686C48.1116 153.379 48.2719 160.513 48.5524 167.226C49.1135 180.552 50.1155 198.187 53.1013 216.462L53.3017 217.725L52.0593 217.584Z" fill="#FFE197"/>
<path d="M87.4684 121.417V116.808C87.5285 109.393 89.5124 107.57 91.2758 105.967C93.0192 104.384 95.0031 102.56 95.1033 97.8709C95.2035 92.821 92.9591 90.4164 90.9552 88.2722C88.8511 86.0278 86.6869 83.7033 86.5065 77.2507C86.3863 72.7619 87.9293 68.6138 91.0955 64.9066C93.6004 61.9809 96.4459 60.1974 97.5681 59.5561L97.7685 59.4359L119.591 57.5723L119.832 57.6925C122.597 58.975 131.695 63.9447 132.396 74.1446C132.837 80.5772 130.893 83.1021 129.029 85.5468C127.246 87.8714 125.222 90.4965 125.823 95.5063C126.384 100.175 128.529 101.779 130.412 103.181C132.496 104.744 134.861 106.508 135.422 115.646C135.442 115.886 135.502 116.127 135.602 116.407L136.183 121.397H87.4684V121.417Z" fill="#FFE197"/>
<path d="M157.866 117.81L168.086 62.3617C168.266 61.3597 167.785 60.3578 166.863 59.8769C164.258 58.5342 162.815 55.5885 163.356 52.7029L164.719 45.3485L186.261 49.3163L184.898 56.6706C184.357 59.5562 181.973 61.8006 179.047 62.1212C178.025 62.2415 177.223 62.9829 177.043 64.0049L167.124 117.79H157.866V117.81Z" fill="#FF80DF"/>
<path d="M219.626 50.739C219.446 50.739 219.326 50.7189 219.185 50.6989L133.478 34.888C132.556 34.7277 131.755 34.1867 131.214 33.4252C130.673 32.6437 130.472 31.7219 130.653 30.78L132.576 20.2795L225.237 37.3529L223.313 47.8534C223.133 48.7752 222.612 49.5767 221.851 50.1178C221.59 50.2981 221.289 50.4384 220.969 50.5386C220.568 50.6789 220.247 50.6989 220.027 50.7189H219.807L219.626 50.739Z" fill="#FCD0F2"/>
<path d="M60.0549 96.9892C56.8888 96.9892 56.0271 96.5083 55.6063 96.0273C54.3839 94.344 47.29 79.8758 41.5188 64.6261C31.9802 39.4369 33.8638 33.7258 34.6654 32.5835L34.8257 32.3431L35.1063 32.2228C36.6092 31.6016 37.3907 31.5215 37.6512 31.5014L38.3726 31.4213L38.6732 32.0826C40.3164 35.7096 48.1517 55.4281 53.8829 69.8362L53.9831 70.0967C58.7925 82.1603 62.159 90.6168 64.1229 95.4662L64.6439 96.7487L63.2612 96.8489C62.0388 96.9491 60.9567 96.9892 60.0549 96.9892Z" fill="#FF80DF"/>
<path d="M44.3041 277.421C42.9415 277.421 41.8193 276.399 41.6991 275.037L37.7113 231.953C37.7714 231.371 38.0119 230.83 38.4327 230.39C38.9136 229.889 39.5549 229.608 40.2562 229.588C41.659 229.588 42.7611 230.59 42.8814 231.933L42.9014 232.193L42.9415 232.213L46.7088 272.191H172.214L176.662 221.131L175.32 222.454C157.545 239.728 134.159 249.246 109.451 249.246C84.7631 249.246 61.3574 239.728 43.5827 222.454C42.8212 222.113 32.7015 218.587 30.9581 218.086C25.7079 216.583 19.7362 214.899 15.1272 210.811C14.1653 209.95 13.3437 209.088 12.5622 208.246C11.8408 207.485 11.1795 206.763 10.4581 206.122C7.8931 203.798 5.24793 201.413 2.32222 200.932C1.11988 200.732 0.178043 199.65 0.117926 198.347C-0.663599 181.895 2.5627 165.864 6.1497 150.995C9.05536 138.991 12.6424 126.567 21.7802 118.311C27.0104 113.582 33.7435 110.616 40.7572 109.935C41.7592 109.834 43.1619 109.774 44.8652 109.774C47.8711 109.774 58.6321 109.975 71.1766 112.62L72.6795 112.94L66.3872 101.598L65.1047 101.698C63.682 101.819 62.0989 101.939 60.4957 101.939C57.6101 101.939 55.4258 101.518 53.7626 100.656L53.6424 100.596L53.4019 100.576C53.1213 100.636 53.0612 100.656 53.0011 100.656C51.8388 100.737 50.5764 101.318 49.1135 102.019C48.4122 102.34 47.6907 102.7 46.9092 103.001C44.2841 104.063 41.7993 105.386 39.5749 106.929C39.1541 107.229 38.613 107.39 38.092 107.39C37.7714 107.39 37.4508 107.309 37.0901 107.169C35.8276 107.109 34.8858 106.488 34.4649 105.546C34.4249 105.326 34.4048 105.245 34.3647 105.145C34.3247 104.985 34.2645 104.845 34.2445 104.684C34.2044 104.484 34.1844 104.283 34.1844 104.083C34.1844 103.843 34.2044 103.622 34.2245 103.422L34.2445 103.181L34.3647 102.58L33.6634 102.239H33.3828C32.441 102.199 31.5793 101.678 31.1385 100.857C30.7777 100.195 30.7377 99.3939 30.9982 98.6926L31.1986 98.1715L30.7377 97.8509C30.1365 97.4702 29.2347 96.8891 28.6536 95.827C28.3931 95.3661 28.2328 94.8651 28.1727 94.3441L28.1526 94.1838L28.0124 93.9633L27.5314 93.5826C26.9703 93.1417 26.6096 92.4804 26.5495 91.7791L26.5896 91.5386C26.5896 91.3783 26.6096 91.2581 26.6297 91.1178L26.6697 90.8172L26.5695 90.2561L26.4894 90.1759C25.9082 89.5147 25.7079 88.6129 25.9483 87.7512L26.0686 87.3504L25.8081 86.9296C24.245 86.0078 23.5036 84.545 23.7641 83.0821C23.8041 82.9018 23.8442 82.7214 23.9043 82.5411L24.0647 82.0802L23.7039 81.7595C23.5637 81.6393 23.4234 81.5191 23.3032 81.3788C22.181 80.2366 21.6199 78.7737 21.7401 77.3309L21.7602 77.1505L21.66 76.89C21.4996 76.6696 21.4596 76.6095 21.4195 76.5494C21.2993 76.4091 21.2191 76.2488 21.1189 76.0885L20.9786 75.8881L20.7181 75.5474C19.6761 74.9663 19.135 73.9643 19.2352 72.9223C19.095 72.3612 18.8745 71.9804 18.6741 71.6398L18.3936 71.1588C17.6121 69.7561 17.2914 68.2732 17.5519 66.9707L17.572 66.8304L17.5119 66.5899C17.051 65.7683 16.6702 65.0068 16.3496 64.2253C16.1091 63.6642 15.4879 62.2014 16.069 60.6183C16.1292 60.4379 16.2294 60.2375 16.3296 60.0371L16.4298 59.8568L16.4097 59.5161C15.9889 58.7947 15.7685 58.2937 15.5681 57.8529C15.5681 57.8529 15.3677 57.392 15.3076 57.2717C14.6463 56.6305 14.3256 56.0293 14.2455 55.368C14.2054 54.9873 14.2455 54.5865 14.3657 54.2258L14.4459 53.9853L14.3256 53.6246C13.7445 53.0435 12.9229 52.2019 12.5622 50.9394C12.2616 49.8573 12.4219 48.8754 12.5422 48.2341L12.5622 48.0137L12.5422 47.5127L12.4821 47.4125C12.3819 47.2722 12.2215 47.0518 11.961 46.7512C11.6604 46.3905 11.3599 46.0098 11.0994 45.609C9.91705 43.8456 9.51626 41.6413 9.9972 39.5772L10.1375 39.2766C10.1776 39.1764 10.2176 39.0762 10.2577 38.9961C10.3379 38.8157 10.4581 38.6554 10.5783 38.5151C10.6585 38.415 10.7386 38.3348 10.8188 38.2546C10.919 38.1544 11.0392 38.0743 11.1394 37.9941C11.2196 37.9541 11.2997 37.914 11.3799 37.8539C11.5803 37.7537 11.7807 37.6735 11.9811 37.6334C12.0813 37.6134 12.4821 37.5533 12.4821 37.5533H12.7025C12.8628 37.5533 12.983 37.5733 13.1433 37.5934L13.3237 37.6334C18.6741 37.5332 23.724 35.1887 28.5935 32.9443C28.7538 32.8641 28.8941 32.824 29.0143 32.804L29.2347 32.7439L29.4552 32.5635C30.2567 29.4575 31.94 28.2151 33.2025 27.694C34.9258 26.9726 36.4889 26.6119 37.8515 26.6119C39.7352 26.6119 41.2582 27.3133 42.4004 28.716C42.9816 29.4374 43.9234 31.5415 58.5519 68.2933L58.6722 68.6139C63.7822 81.4589 70.1346 97.4301 70.8359 98.8328L79.6731 114.724L79.8335 114.764C80.5348 114.984 81.116 115.165 81.6971 115.345L82.5588 115.626L82.6189 114.724C83.0397 107.369 85.4043 104.644 87.9693 102.3C89.4122 100.997 90.1336 100.336 90.1937 97.7507C90.2538 94.7248 89.1116 93.4824 87.3882 91.6188C85.0436 89.1139 81.8574 85.6872 81.5969 77.371C81.2562 65.4878 90.1736 58.434 94.0212 55.9492L94.2215 55.8289L94.3618 55.4883L93.3398 43.1241C93.2797 42.4228 93.5202 41.7214 93.9811 41.2004C94.442 40.6794 95.1233 40.3387 95.8247 40.2986C95.8247 40.2986 118.609 39.1364 118.689 39.1364C120.152 39.1364 121.314 40.1383 121.415 41.521L122.437 53.4643L122.637 53.5645C126.905 55.7287 136.544 61.9008 137.346 73.8241C137.907 82.1202 135.061 85.8475 132.977 88.5528C131.414 90.5767 130.392 91.9194 130.753 94.9453C131.053 97.5103 131.835 98.0914 133.398 99.2537C136.704 101.718 139.73 104.804 140.392 115.365C140.412 115.826 140.592 117.169 140.592 117.169L140.632 117.529H152.936L162.956 63.2434L162.775 63.0831C159.349 60.2977 157.786 56.0494 158.547 51.8412L159.85 44.7874L132.596 39.7576C130.372 39.3368 128.448 38.0943 127.166 36.2307C125.883 34.3671 125.402 32.1227 125.823 29.8983L128.188 17.1334C128.208 17.0533 128.308 16.6725 128.308 16.6725C128.328 11.7028 128.689 6.87341 129.41 2.22434C129.51 1.52297 129.911 0.90176 130.472 0.500978C130.913 0.180352 131.454 0 131.995 0C132.136 0 132.296 0.0200381 132.436 0.0400772L234.195 17.6945C234.936 17.8148 235.577 18.2556 235.958 18.8969C236.359 19.5381 236.459 20.2996 236.259 21.021C235.758 22.7444 233.113 31.5616 230.628 35.5494L230.527 35.89L228.203 48.5547C227.882 50.3382 227.141 51.8612 226.099 52.9633C224.436 54.7268 222.211 55.7087 219.867 55.7087C219.326 55.7087 218.805 55.6686 218.324 55.5684L191.071 50.5386L189.768 57.5924C188.986 61.8006 186.001 65.2273 181.973 66.5499L181.752 66.63L181.532 66.9106L172.194 117.529H186.101C191.772 117.529 196.381 122.138 196.381 127.809V129.032H201.431C202.874 129.032 204.036 130.194 204.036 131.637V154.622C204.036 176.384 196.421 197.666 182.614 214.499L182.534 214.599L177.203 275.017C177.083 276.379 175.961 277.401 174.598 277.401H44.3041V277.421ZM53.0813 223.857C68.9923 236.842 88.9913 243.976 109.451 243.976C135.502 243.976 160.21 232.574 177.264 212.715L177.344 212.615L183.235 145.724L84.2421 145.704C82.7391 145.704 81.5568 144.542 81.5168 143.099C81.4967 142.398 81.7572 141.717 82.2582 141.195C82.7592 140.674 83.4205 140.394 84.1218 140.374C84.2822 140.374 142.315 140.354 167.785 140.354C174.458 140.354 178.887 140.354 179.468 140.354C182.534 140.374 184.498 140.394 185.8 140.494H186.041C188.866 140.494 191.131 138.23 191.131 135.444V127.789C191.131 125.004 188.866 122.739 186.081 122.739H98.8305L98.4698 122.719C97.0671 122.699 95.9449 121.577 95.9249 120.174C95.9048 118.772 97.007 117.589 98.4097 117.529L98.6903 117.509H135.262L135.161 115.686C134.6 106.688 132.396 105.045 130.272 103.462C128.428 102.079 126.124 100.376 125.563 95.5665C124.962 90.4365 127.106 87.631 128.829 85.3866C130.753 82.8817 132.556 80.4971 132.136 74.1848C131.454 64.1452 122.477 59.2356 119.751 57.9731L119.631 57.933L98.029 59.7366C97.007 60.2576 94.0011 62.021 91.3559 65.107C88.2299 68.7542 86.7069 72.8221 86.8271 77.2507C87.0075 83.5831 89.0515 85.7673 91.1956 88.0718C93.1394 90.1559 95.5441 92.7209 95.4239 97.891C95.3237 102.72 93.1995 104.644 91.4962 106.187C89.7127 107.79 87.4483 112.64 87.769 116.848C88.0695 120.695 86.8071 122.098 85.6649 122.9C85.4845 123.04 85.0036 123.281 84.3824 123.581C83.18 124.202 81.3364 125.124 80.0138 126.086C64.1429 137.488 64.6038 156.786 64.6238 157.587C64.7039 160.072 65.0446 162.738 65.6859 166.224C67.3491 175.142 69.9943 183.879 73.6013 192.195L73.6414 192.435C73.7015 192.616 73.7215 192.756 73.7416 192.876C73.7616 193.057 73.7817 193.237 73.7616 193.417C73.7616 193.538 73.7416 193.658 73.7015 193.778C73.6614 193.958 73.6013 194.139 73.5212 194.319C73.4811 194.419 73.421 194.52 73.3408 194.64C73.2406 194.78 73.1404 194.92 73.0001 195.061C72.8999 195.161 72.7997 195.241 72.6795 195.341L72.399 195.582C72.2787 195.662 72.2386 195.702 72.1785 195.722C69.2127 197.245 66.0666 198.006 63.0407 198.748C61.3374 199.169 59.9146 199.529 58.5319 199.97C58.1912 200.09 57.8305 200.211 57.4899 200.331C57.0089 200.491 56.7284 200.591 56.4679 200.712L55.9869 200.912L56.0471 201.433C56.548 205.902 57.1091 210.07 57.7504 214.178L58.071 216.182C58.2313 217.224 58.4117 218.266 58.592 219.288C58.8125 220.57 58.1912 221.833 57.0891 222.394C56.7083 222.534 56.5079 222.574 56.1072 222.574C55.7264 222.654 55.506 222.695 55.3056 222.695C54.8848 222.695 54.504 222.674 54.1433 222.654L51.418 222.514L53.0813 223.857ZM44.0036 115.004C42.8413 115.004 41.9195 115.044 41.2782 115.105C39.5749 115.265 37.8115 115.626 36.028 116.167C32.0202 117.369 28.3129 119.433 25.3071 122.158C23.9845 123.361 22.722 124.783 21.3393 126.627L21.0387 127.028C20.7983 127.328 20.5778 127.629 20.3775 127.93C17.6321 131.998 15.4478 137.007 13.484 143.66C12.6023 146.646 11.8608 149.652 11.2396 152.197C7.91313 165.944 4.90727 180.753 5.26797 195.822V196.083L5.52848 196.383L5.70883 196.463C8.93513 197.706 11.6003 200.11 13.9449 202.235C14.7865 202.996 15.5681 203.818 16.3095 204.619C17.071 205.441 17.7924 206.202 18.5739 206.904C22.3012 210.21 27.6516 211.713 32.3608 213.056L33.8036 213.456C37.05 214.378 40.8975 215.42 44.9454 216.242C47.7909 216.823 49.9952 217.144 52.0793 217.324L52.9811 217.404L52.8408 216.522C49.875 198.227 48.853 180.572 48.2919 167.246C48.0114 160.493 47.8511 153.359 49.2137 146.626C49.374 145.825 49.5544 145.043 49.7548 144.261C50.0554 143.119 51.0974 142.318 52.2997 142.318C52.5202 142.318 52.7406 142.338 52.941 142.398C54.3237 142.759 55.1653 144.201 54.8046 145.584L54.6443 146.326C53.0813 152.838 53.2215 159.832 53.5221 167.026C53.9429 177.426 54.5241 186.183 55.3256 194.62L55.4058 195.501L56.2474 195.221C58.1311 194.58 60.0148 194.119 61.7983 193.678C63.6619 193.217 65.4654 192.776 67.1688 192.175L67.8701 191.935L67.5896 191.253C64.4234 183.338 62.0387 175.262 60.5559 167.226C59.8545 163.459 59.5138 160.553 59.4136 157.808C59.2934 154.141 59.6741 150.373 60.5759 146.666C61.137 144.362 61.8584 142.137 62.7201 140.053C65.3051 133.881 69.2929 128.35 74.3027 124.042C75.2846 123.2 77.6292 121.457 77.6492 121.437L78.05 121.136L77.6492 120.816C77.5089 120.696 73.8819 117.79 60.7763 116.207C55.0251 115.425 48.7328 115.004 44.0036 115.004ZM196.381 135.464C196.381 139.953 193.335 144.001 188.986 145.283L188.526 145.424L183.556 202.355L184.698 202.736L184.858 202.475C193.976 188.147 198.806 171.595 198.806 154.622V134.242H196.361V135.464H196.381ZM163.657 52.803C163.156 55.4682 164.539 58.1735 167.144 59.6965C168.106 60.2576 168.607 61.3397 168.406 62.4418L158.246 117.529H166.883L176.763 63.9848C176.963 62.8426 177.905 62.001 179.067 61.8607C181.832 61.5401 184.117 59.3959 184.618 56.6505L185.92 49.5968L164.98 45.7292L163.657 52.803ZM36.1482 83.3627C37.0299 83.3627 37.8516 83.8035 38.3325 84.545C38.7132 85.1261 38.8535 85.8275 38.7132 86.5088C38.573 87.1901 38.1722 87.7713 37.591 88.172C36.3887 88.9536 34.9058 89.9154 33.6233 90.9374L33.1624 91.2981L33.463 91.8192C33.6433 92.1598 33.7636 92.5406 33.7836 92.9414L33.8237 93.5225L34.4048 93.5826C34.7856 93.6227 35.1463 93.7429 35.4669 93.9433C36.1081 94.3241 36.549 94.9653 36.6893 95.7067C36.7694 96.1476 36.8095 96.6285 36.8095 97.0694V97.3099L37.0299 97.6105C38.2122 98.2116 39.0339 99.0733 39.4948 100.155L39.7953 100.857L40.4767 100.496C43.0417 99.1334 45.2059 98.0513 47.2699 97.0694C47.9713 96.7488 48.6125 96.4682 49.2538 96.2077L49.9752 95.9272L49.6145 95.2458C44.0436 84.4448 31.2186 55.4081 29.355 39.437L29.2548 38.4951L28.3731 38.8959C25.0265 40.3988 21.0187 42.022 16.7303 42.6632L15.508 42.8436L16.2694 43.8055C16.9508 44.6471 17.6722 45.6891 17.8325 47.0718C17.9327 47.8734 17.8125 48.5948 17.7323 49.1158L17.7123 49.2561L17.7523 49.5367L17.8525 49.737C18.2934 50.218 18.5739 50.4785 18.8144 50.7791C19.2753 51.3402 19.5959 51.9614 19.7763 52.6427L19.9967 53.4443L20.7582 53.0836C21.8203 52.5826 22.6619 52.0215 23.3432 51.4003C23.8242 50.9594 24.4454 50.719 25.1067 50.719C25.8481 50.719 26.5495 51.0396 27.0505 51.5806C27.5114 52.1017 27.7518 52.763 27.7318 53.4643C27.6917 54.1657 27.3911 54.8069 26.8701 55.2678C25.5275 56.4902 23.8843 57.5122 22.1209 58.2537L21.5998 58.4741L21.7 59.0352C21.9205 60.2977 21.6399 61.2796 21.3594 61.8607L21.3193 61.9609L21.2592 62.2014L21.2792 62.4218C21.3794 62.7024 21.6399 63.2033 21.6399 63.2033C21.8603 63.6642 22.1209 64.1051 22.3814 64.5459C22.3814 64.5459 22.682 65.0269 22.7621 65.1672C23.3232 65.9888 23.3633 67.0108 22.9024 67.8925L22.8022 68.0728L22.8222 68.3935L23.9645 70.3773L24.766 69.3754C24.9464 69.1549 25.1067 68.9345 25.247 68.694C25.7079 67.8925 26.5695 67.4115 27.4913 67.4115C27.9522 67.4115 28.4131 67.5318 28.8139 67.7722C28.8941 67.8524 28.9542 67.9125 29.0143 67.9526C29.1345 68.0528 29.2548 68.153 29.375 68.2732C29.4952 68.3934 29.5954 68.5337 29.6756 68.674C29.7558 68.8143 29.8359 68.9746 29.896 69.1349L30.0363 69.4355C30.1766 70.0367 30.0764 70.738 29.7357 71.3392C29.0544 72.4814 28.2328 73.5435 27.2509 74.4853L27.0705 74.6657L27.0104 75.0464L27.1106 75.4272C27.1106 75.4272 27.1907 75.828 27.1907 75.9282C27.2108 76.1486 27.2108 76.3891 27.2108 76.6095C27.1908 76.7498 27.1908 76.87 27.1707 77.0103L27.0906 77.2908L27.311 78.0122L27.4312 78.0924C27.6917 78.2527 28.0725 78.4531 28.4131 78.6134C29.2147 79.0142 29.7558 79.7757 29.876 80.6574C29.9561 81.2986 29.9161 81.9599 29.7558 82.6012L29.6956 82.8416L29.8359 83.1823C30.5172 83.8035 30.918 84.4247 31.1585 85.1662L31.439 86.088L32.2206 85.5469C33.0221 84.9858 33.8638 84.4247 34.7455 83.8436C35.1463 83.5029 35.6473 83.3627 36.1482 83.3627ZM37.6712 31.802C37.0099 31.8622 36.1883 32.1026 35.2064 32.5034L35.1062 32.5435L35.0461 32.6237C34.2044 33.7058 32.2406 39.2366 41.7993 64.5059C47.5505 79.7155 54.6243 94.1637 55.7865 95.7468C56.2074 96.2077 57.0089 96.6686 60.0549 96.6686C60.9566 96.6686 62.0187 96.6285 63.2411 96.5484L64.203 96.4883L63.8423 95.5865C61.8784 90.7371 58.5119 82.2805 53.7025 70.217L53.6023 69.9565C47.8911 55.5684 40.0559 35.87 38.4126 32.2229L38.2123 31.762L37.6712 31.802ZM98.7704 45.3886L99.5119 54.346L117.126 52.8431L116.425 44.4868L98.7704 45.3886ZM130.933 30.8402C130.773 31.6818 130.953 32.5435 131.454 33.2449C131.935 33.9462 132.677 34.4272 133.518 34.5875L219.245 50.3983C219.366 50.4184 219.466 50.4184 219.586 50.4384H219.967C220.227 50.4184 220.488 50.3983 220.768 50.3182C221.169 50.1779 221.43 50.0577 221.65 49.8974C222.352 49.4164 222.832 48.675 222.993 47.8333L224.876 37.6334L132.817 20.6603L130.933 30.8402ZM134.099 6.37243C133.799 8.93744 133.638 11.7028 133.578 14.849V15.4501L226.319 32.5635L226.56 32.1227C227.882 29.6979 229.365 25.4296 230.127 23.1051L230.387 22.3436L224.836 21.3817L224.115 25.3495C223.875 26.5919 222.812 27.4936 221.55 27.4936C221.39 27.4936 221.229 27.4736 221.069 27.4536C220.388 27.3333 219.787 26.9326 219.386 26.3715C218.985 25.7903 218.845 25.109 218.965 24.4076L219.686 20.48L215.999 19.8387L215.298 23.7263C215.077 24.8886 214.136 25.7703 213.013 25.8504H212.733C212.472 25.8504 212.232 25.8104 211.971 25.7502C210.709 25.3695 209.927 23.9868 210.188 22.6041L210.869 18.9369L207.002 18.2757L206.28 22.2033C206.06 23.3856 205.038 24.2874 203.855 24.3475C203.835 24.3475 203.795 24.3475 203.775 24.3475C203.535 24.3475 203.395 24.3275 203.234 24.3074C202.553 24.1872 201.952 23.7864 201.551 23.2253C201.15 22.6442 201.01 21.9629 201.13 21.2615L201.852 17.3739L198.164 16.7327L197.483 20.4399C197.283 21.5621 196.16 22.6241 195.098 22.7043H194.878C194.698 22.7043 194.497 22.6843 194.297 22.6442C192.934 22.3636 192.052 21.021 192.293 19.6183L192.994 15.8309L189.147 15.1696L188.445 19.0572C188.225 20.2996 187.143 21.2014 185.88 21.2014C185.58 21.2014 185.279 21.1613 184.979 21.0611C183.796 20.6804 183.075 19.3778 183.315 18.0552L184.017 14.2879L180.33 13.6466L179.628 17.434C179.408 18.6764 178.326 19.5782 177.063 19.5782C176.903 19.5782 176.743 19.5582 176.582 19.5381C175.901 19.4179 175.3 19.0171 174.899 18.456C174.498 17.8749 174.358 17.1935 174.478 16.4922L175.159 12.7449L171.292 12.0836L170.611 15.7708C170.41 16.893 169.288 17.955 168.226 18.0352H168.006C167.845 18.0352 167.685 18.0152 167.525 17.9951C166.843 17.8749 166.242 17.4941 165.841 16.913C165.44 16.3319 165.3 15.6505 165.42 14.9492L166.122 11.1618L162.435 10.5205L161.753 14.2678C161.533 15.5103 160.451 16.412 159.188 16.412C159.028 16.412 158.868 16.392 158.707 16.3719C158.026 16.2517 157.425 15.8509 157.024 15.2898C156.623 14.7087 156.483 14.0274 156.603 13.326L157.285 9.63881L153.417 8.97752L152.716 12.7649C152.495 13.9673 151.453 14.869 150.231 14.9091C150.211 14.9091 150.211 14.9091 150.191 14.9091C149.97 14.9091 149.81 14.9091 149.67 14.869C148.988 14.7488 148.387 14.348 147.986 13.7869C147.586 13.2058 147.445 12.5244 147.566 11.8231L148.247 8.07576L144.56 7.43451L143.878 11.1217C143.658 12.3641 142.576 13.2659 141.313 13.2659C141.153 13.2659 140.993 13.2458 140.832 13.2258C140.151 13.1056 139.55 12.7048 139.149 12.1437C138.748 11.5626 138.608 10.8812 138.728 10.1799L139.39 6.53275L134.119 5.61095L134.099 6.37243Z" fill="#5F5F5F"/>
<path d="M21.8203 199.309C21.159 199.309 20.5177 199.048 20.0568 198.567C19.5759 198.086 19.3154 197.465 19.3354 196.784C19.3354 195.401 20.4777 194.279 21.8403 194.279C22.1008 194.279 22.3413 194.259 22.6018 194.199C24.3853 193.858 26.1487 192.315 27.1106 190.251C27.4513 189.51 27.7118 188.708 27.9522 187.606C28.3731 185.682 28.4933 183.598 28.5735 181.614C28.6336 179.731 28.6736 177.847 28.7338 175.743C28.9141 167.747 29.1145 159.471 30.7778 151.415L30.918 150.734C31.7396 146.967 32.8819 143.4 34.3247 140.113C37.2103 133.52 41.2382 128.29 46.268 124.543C46.4684 124.403 46.7088 124.282 46.9894 124.182C47.2499 124.102 47.5104 124.062 47.791 124.062C48.0515 124.062 48.312 124.102 48.5524 124.182C49.0534 124.343 49.4742 124.643 49.7748 125.064C50.1756 125.605 50.3359 126.266 50.2357 126.928C50.1355 127.589 49.7949 128.17 49.2538 128.591C45.6868 131.236 42.6609 134.883 40.2562 139.392C39.114 141.556 38.1321 143.821 37.3506 146.165C36.8496 147.648 36.4288 149.191 36.028 150.874L35.9078 151.335C35.8276 151.696 35.7274 152.077 35.6673 152.417C34.1042 160.052 33.9039 168.068 33.7235 175.843C33.6834 177.787 33.6233 179.791 33.5632 181.775C33.483 184.059 33.3428 186.724 32.7215 189.229C32.441 190.391 32.0803 191.413 31.6394 192.375C31.2587 193.197 30.7577 193.998 30.1365 194.82C28.7738 196.604 27.0304 197.926 25.1067 198.648C24.0045 199.068 22.9024 199.269 21.8604 199.269H21.8203V199.309Z" fill="#5F5F5F"/>
<path d="M232.351 89.0938C224.335 89.0938 217.923 83.1222 217.462 75.2067C217.362 73.5836 216.159 72.5215 214.436 72.5215C212.893 72.6217 211.751 73.9242 211.751 75.5474C211.991 79.4951 210.669 83.2825 208.064 86.2483C205.439 89.194 201.852 90.9374 197.964 91.1578C196.401 91.258 195.259 92.5405 195.279 94.1838C195.379 95.7067 196.541 96.889 197.924 96.889L199.046 96.849C206.881 96.849 213.394 102.941 213.855 110.716C213.955 112.219 215.198 113.401 216.701 113.401H216.881C218.424 113.301 219.566 111.999 219.566 110.355C219.326 106.408 220.648 102.62 223.253 99.6745C225.858 96.7287 229.445 94.9853 233.353 94.7649C234.916 94.6647 236.058 93.3822 236.038 91.739C235.978 90.4565 234.976 89.0938 232.351 89.0938ZM216.159 99.9149C216.039 98.3118 210.328 93.3421 208.725 93.4623C210.328 93.3421 215.298 87.631 215.178 86.0278C215.298 87.631 221.009 92.6007 222.612 92.4804C221.009 92.5806 216.039 98.3118 216.159 99.9149Z" fill="#5F5F5F"/>
<path d="M90.7547 18.7165C82.7391 18.7165 76.3266 12.7449 75.8657 4.82941C75.7655 3.20624 74.5631 2.14417 72.8398 2.14417C71.2968 2.24436 70.1545 3.5469 70.1545 5.17007C70.395 9.11777 69.0724 12.9052 66.4673 15.871C63.8422 18.8167 60.2552 20.5601 56.3676 20.7805C54.8046 20.8807 53.6623 22.1632 53.6824 23.8064C53.7826 25.3294 54.9449 26.5117 56.3275 26.5117L57.4497 26.4716C65.285 26.4716 71.7977 32.5635 72.2586 40.3387C72.3588 41.8416 73.6013 43.0239 75.1042 43.0239H75.2845C76.8275 42.9237 77.9698 41.6012 77.9698 39.978C77.7293 36.0303 79.0519 32.2429 81.657 29.2971C84.2621 26.3514 87.849 24.608 91.7567 24.3876C93.3197 24.2874 94.462 23.0049 94.4419 21.3617C94.3818 20.0992 93.3598 18.7165 90.7547 18.7165ZM74.5431 29.5376C74.4229 27.9345 68.7117 22.9648 67.1086 23.085C68.7117 22.9648 73.6814 17.2536 73.5612 15.6505C73.6814 17.2536 79.3926 22.2233 80.9957 22.1031C79.4126 22.2233 74.4429 27.9545 74.5431 29.5376Z" fill="#5F5F5F"/>
</svg>
