<?xml version="1.0" encoding="UTF-8"?><svg id="a" xmlns="http://www.w3.org/2000/svg" width="88.053mm" height="88.053mm" viewBox="0 0 249.599 249.599"><path d="M184.373,134.232c-.025-.005-.049-.01-.074-.015-.705-.142-1.403-.298-2.121-.414-.804-1.132-1.85-3-2.825-6.463l-.275-1.999c3.799-3.444,6.85-8.169,8.764-13.607.774-.196,1.529-.546,2.232-1.039,2.207-1.552,3.773-4.35,4.292-7.674.648-4.109-.51-7.905-2.761-9.99,1.099-.451,1.827-1.571,1.703-2.814-1.946-19.682-12.201-30.52-28.872-30.52s-26.922,10.839-28.868,30.52c-.103,1.039.392,1.991,1.197,2.542-2.455,2.015-3.746,5.969-3.069,10.259.52,3.328,2.085,6.126,4.292,7.678.703.494,1.457.843,2.232,1.039,1.917,5.438,4.966,10.161,8.76,13.603l-.304,2.221c-.375,2.986-1.052,4.925-1.719,6.266-9.999,1.645-18.687,5.797-25.14,11.499-1.363-.852-2.759-1.665-4.219-2.395,1.509-.069,2.716-1.305,2.716-2.832v-56.015c0-23.026-18.733-41.759-41.759-41.759s-41.76,18.733-41.76,41.759v56.015c0,1.499,1.164,2.714,2.636,2.824-15.714,7.847-26.032,23.029-26.032,40.266,0,1.57,1.274,2.845,2.845,2.845.275,0,.534-.051.785-.124h122.956c.251.073.511.124.785.124,1.57,0,2.845-1.274,2.845-2.845,0-3.723-.498-7.345-1.413-10.822h73.776c.181.037.368.057.56.057,1.524,0,2.761-1.237,2.761-2.761,0-16.713-14.555-31.292-34.927-35.43Z" fill="#a9d6d2"/><path d="M171.488,67.243c14.079,0,22.083,8.744,23.788,25.991.007.076.03.145.042.219-2.361-1.954-4.463-4.621-6.227-8.037-.916-1.775-1.742-3.749-2.457-5.869-.392-1.165-1.476-1.891-2.64-1.9-.545-.045-1.11.067-1.621.358-2.098,1.198-4.461,2.218-7.023,3.033-7.252,2.306-14.573,2.506-19.437,2.269-1.157-.065-2.17.583-2.65,1.553-.22.318-.382.682-.457,1.087-.186,1.013-.515,1.983-.978,2.881-1.058,2.055-2.641,3.443-4.12,4.367,1.714-17.221,9.715-25.953,23.78-25.953Z" fill="#a9d6d2"/><path d="M193.374,137.468c-.025-.005-.05-.01-.075-.015-.717-.145-1.427-.303-2.158-.422-.818-1.152-1.882-3.052-2.875-6.576l-.279-2.034c3.866-3.504,6.97-8.312,8.918-13.846.788-.2,1.556-.555,2.271-1.057,2.246-1.579,3.839-4.427,4.368-7.808.659-4.181-.519-8.043-2.809-10.165,1.118-.459,1.859-1.599,1.733-2.864-1.98-20.027-12.415-31.056-29.378-31.056s-27.395,11.029-29.375,31.056c-.105,1.058.399,2.025,1.218,2.586-2.498,2.05-3.811,6.073-3.123,10.439.529,3.386,2.121,6.233,4.368,7.813.715.503,1.483.858,2.271,1.057,1.95,5.534,5.053,10.339,8.913,13.842l-.309,2.26c-.382,3.038-1.071,5.012-1.749,6.376-10.174,1.674-19.015,5.898-25.581,11.701-1.387-.867-2.807-1.694-4.293-2.437,1.535-.07,2.763-1.328,2.763-2.881v-56.997c0-23.43-19.062-42.492-42.491-42.492s-42.493,19.062-42.493,42.492v56.997c0,1.526,1.185,2.762,2.682,2.873-15.99,7.984-26.488,23.433-26.488,40.972,0,1.598,1.297,2.895,2.895,2.895s2.895-1.297,2.895-2.895c0-20.053,15.871-37.022,37.738-40.349.421-.064.833-.154,1.241-.26.064.08.121.165.195.239,5.686,5.685,13.246,8.817,21.286,8.817s15.6-3.131,21.286-8.817c.075-.075.131-.159.195-.239.408.106.82.196,1.241.26,21.866,3.327,37.738,20.296,37.738,40.349,0,1.598,1.297,2.895,2.895,2.895s2.895-1.297,2.895-2.895c0-13.966-6.671-26.593-17.456-35.194,4.722-3.87,10.694-6.881,17.513-8.598,5.935,5.263,13.322,7.893,20.709,7.893,7.527,0,15.024-2.751,20.972-8.144,17.386,4.017,29.654,16.331,29.654,30.281,0,1.551,1.259,2.81,2.81,2.81s2.81-1.259,2.81-2.81c0-17.006-14.81-31.841-35.54-36.051ZM85.653,149.941c-6.015,0-11.681-2.194-16.136-6.163,2.762-2.444,4.681-6.05,5.162-10.178l.183-1.569c3.426,1.502,7.078,2.299,10.79,2.299s7.365-.797,10.794-2.301l.183,1.571c.48,4.128,2.4,7.734,5.162,10.178-4.455,3.969-10.121,6.163-16.136,6.163ZM98,124.569c-7.465,5.197-17.233,5.196-24.691,0-7.463-5.197-12.1-14.78-12.1-25.01,0-.457.028-.9.039-1.352,6.806-1.101,19.427-4.629,28.707-15.935.314-.383.609-.78.909-1.172,1.147,1.911,2.979,4.105,5.765,6.427,4.128,3.44,9.03,4.127,12.288,4.127.207,0,.402-.005.595-.01.389,2.464.587,5.115.587,7.915,0,10.23-4.635,19.813-12.099,25.009ZM109.247,141.211c-3.54-.538-6.364-3.944-6.87-8.281l-.473-4.056c8.763-6.421,13.983-17.309,13.983-29.313,0-4.166-.399-8.068-1.185-11.599-.043-.195-.106-.382-.185-.558-.533-1.252-1.901-1.994-3.28-1.696-.063.012-6.376,1.145-10.903-2.626-4.983-4.152-5.775-7.278-5.775-7.278,2.446-3.895,3.605-8.492,4.018-10.764.285-1.572-.547-3.124-2.097-3.516-1.545-.392-3.122.548-3.516,2.096-1.422,5.621-3.94,10.662-7.485,14.981-9.101,11.09-22.028,13.605-27.163,14.171-1.08.119-1.944.824-2.338,1.759-.253.402-.422.863-.452,1.368-.071,1.202-.106,2.423-.106,3.661,0,12.002,5.221,22.89,13.983,29.313l-.473,4.057c-.505,4.338-3.33,7.744-6.87,8.281-4.82.733-9.377,2.067-13.599,3.899.337-.473.54-1.048.54-1.673v-56.997c0-20.238,16.465-36.703,36.703-36.703s36.702,16.465,36.702,36.703v56.997c0,.657.228,1.256.597,1.742-4.265-1.867-8.875-3.226-13.755-3.969ZM173.091,67.243c14.079,0,22.083,8.744,23.788,25.991.007.076.03.145.042.219-2.361-1.954-4.463-4.621-6.227-8.037-.916-1.775-1.742-3.749-2.457-5.869-.392-1.165-1.476-1.891-2.64-1.9-.545-.045-1.11.067-1.621.358-2.098,1.198-4.461,2.218-7.023,3.033-7.252,2.306-14.573,2.506-19.437,2.269-1.157-.065-2.17.583-2.65,1.553-.22.318-.382.682-.457,1.087-.186,1.013-.515,1.983-.978,2.881-1.058,2.055-2.641,3.443-4.12,4.367,1.714-17.221,9.715-25.953,23.78-25.953ZM153.228,111.102c-.412-1.382-1.806-2.238-3.224-1.959-.188.035-.48-.142-.594-.222-.732-.514-1.706-1.891-2.05-4.088-.505-3.202.75-5.238,1.455-5.369.844.078,1.619-.227,2.181-.761,2.478-1.295,5.492-3.538,7.428-7.304.398-.773.716-1.583.983-2.413.407.007.81.016,1.237.016,5.056,0,11.528-.549,18.011-2.61,1.886-.6,3.674-1.312,5.367-2.106.525,1.293,1.079,2.543,1.681,3.707,2.338,4.533,5.23,8.081,8.588,10.578.587.617,1.436.98,2.328.898.625.126,1.88,2.162,1.375,5.369-.344,2.193-1.318,3.57-2.05,4.084-.111.08-.399.255-.594.222-1.42-.279-2.813.576-3.224,1.959-1.747,5.889-4.95,10.898-9.015,14.104-6.334,4.993-14.541,4.993-20.869,0-4.065-3.204-7.267-8.212-9.016-14.105ZM159.023,141.794c1.119-1.606,2.736-4.482,3.497-9.741,3.198,1.691,6.642,2.587,10.155,2.587s6.991-.903,10.206-2.611c1.502,5.307,3.244,7.78,4.362,9.162-8.43,5.843-19.555,6.081-28.22.604Z"/><path d="M85.653,149.941c-6.015,0-11.681-2.194-16.136-6.163,2.762-2.444,4.681-6.05,5.162-10.178l.183-1.569c3.426,1.502,7.078,2.299,10.79,2.299s7.365-.797,10.794-2.301l.183,1.571c.48,4.128,2.4,7.734,5.162,10.178-4.455,3.969-10.121,6.163-16.136,6.163Z" fill="#e4f6f4"/><path d="M98,124.569c-7.465,5.197-17.233,5.196-24.691,0-7.463-5.197-12.1-14.78-12.1-25.01,0-.457.028-.9.039-1.352,6.806-1.101,19.427-4.629,28.707-15.935.314-.383.609-.78.909-1.172,1.147,1.911,2.979,4.105,5.765,6.427,4.128,3.44,9.03,4.127,12.288,4.127.207,0,.402-.005.595-.01.389,2.464.587,5.115.587,7.915,0,10.23-4.635,19.813-12.099,25.009Z" fill="#e4f6f4"/><path d="M153.228,111.102c-.412-1.382-1.806-2.238-3.224-1.959-.188.035-.48-.142-.594-.222-.732-.514-1.706-1.891-2.05-4.088-.505-3.202.75-5.238,1.455-5.369.844.078,1.619-.227,2.181-.761,2.478-1.295,5.492-3.538,7.428-7.304.398-.773.716-1.583.983-2.413.407.007.81.016,1.237.016,5.056,0,11.528-.549,18.011-2.61,1.886-.6,3.674-1.312,5.367-2.106.525,1.293,1.079,2.543,1.681,3.707,2.338,4.533,5.23,8.081,8.588,10.578.587.617,1.436.98,2.328.898.625.126,1.88,2.162,1.375,5.369-.344,2.193-1.318,3.57-2.05,4.084-.111.08-.399.255-.594.222-1.42-.279-2.813.576-3.224,1.959-1.747,5.889-4.95,10.898-9.015,14.104-6.334,4.993-14.541,4.993-20.869,0-4.065-3.204-7.267-8.212-9.016-14.105Z" fill="#e4f6f4"/><path d="M159.023,141.794c1.119-1.606,2.736-4.482,3.497-9.741,3.198,1.691,6.642,2.587,10.155,2.587s6.991-.903,10.206-2.611c1.502,5.307,3.244,7.78,4.362,9.162-8.43,5.843-19.555,6.081-28.22.604Z" fill="#e4f6f4"/></svg>