<?xml version="1.0" encoding="UTF-8"?><svg id="a" xmlns="http://www.w3.org/2000/svg" width="88.053mm" height="88.053mm" viewBox="0 0 249.599 249.599"><circle cx="92.324" cy="100.868" r="73.14" fill="#ffa9d8"/><path d="M215.539,211.31l-53.368-53.367c12.777-13.868,19.81-31.886,19.81-50.765,0-41.348-33.64-74.987-74.987-74.987S32.006,65.831,32.006,107.179s33.64,74.987,74.987,74.987c18.88,0,36.896-7.032,50.764-19.81l53.368,53.368c.608.608,1.407.913,2.207.913s1.599-.305,2.207-.913c.586-.586.909-1.369.909-2.207s-.323-1.621-.909-2.207ZM175.732,107.179c0,37.902-30.836,68.738-68.738,68.738s-68.738-30.836-68.738-68.738,30.836-68.738,68.738-68.738,68.738,30.836,68.738,68.738Z"/></svg>