<?xml version="1.0" encoding="UTF-8"?> <svg xmlns="http://www.w3.org/2000/svg" width="45" height="36" viewBox="0 0 45 36" fill="none"><path d="M6.24565 6.17346C6.24565 3.74644 8.23279 1.753 10.6518 1.753C13.0709 1.753 15.0577 3.74644 15.0577 6.17346C15.0577 8.60048 13.0709 10.5942 10.6518 10.5942C8.23279 10.5942 6.24565 8.60048 6.24565 6.17346ZM16.0944 6.17346C16.0944 3.13969 13.6756 0.712891 10.6518 0.712891C7.62803 0.712891 5.20896 3.13969 5.20896 6.17346C5.20896 9.20724 7.62803 11.6343 10.6518 11.6343C13.6756 11.6343 16.0944 9.20724 16.0944 6.17346ZM22.7469 10.5942C25.7707 10.5942 28.1898 13.0212 28.1898 16.055C28.1898 19.0888 25.7707 21.5159 22.7469 21.5159C19.7231 21.5159 17.3041 19.0888 17.3041 16.055C17.3041 13.0212 19.7231 10.5942 22.7469 10.5942ZM22.7469 22.6427C26.3755 22.6427 29.3127 19.6956 29.3127 16.055C29.3127 12.4145 26.3755 9.46732 22.7469 9.46732C19.1184 9.46732 16.1809 12.4145 16.1809 16.055C16.1809 19.6956 19.1184 22.6427 22.7469 22.6427ZM18.6864 25.9363H26.721C31.1271 25.9363 34.7555 29.5771 34.7555 33.9977C34.7555 34.4311 34.4101 34.691 34.0645 34.691H11.4293C11.4293 34.691 10.738 34.3444 10.738 33.9977C10.738 29.5771 14.3665 25.9363 18.7726 25.9363H18.6864ZM18.6864 24.8962C13.6755 24.8962 9.52866 28.9701 9.52866 34.0842C9.52866 35.1243 10.3061 35.9046 11.3429 35.9046H33.978C35.0147 35.9046 35.7922 35.1243 35.7922 34.0842C35.7922 29.0568 31.7317 24.8962 26.6345 24.8962H18.5999H18.6864ZM35.8787 1.753C38.2977 1.753 40.2849 3.74644 40.2849 6.17346C40.2849 8.60048 38.2977 10.5942 35.8787 10.5942C33.4597 10.5942 31.4725 8.60048 31.4725 6.17346C31.4725 3.74644 33.4597 1.753 35.8787 1.753ZM35.8787 11.6343C38.9025 11.6343 41.3216 9.20724 41.3216 6.17346C41.3216 3.13969 38.9025 0.712891 35.8787 0.712891C32.8549 0.712891 30.4358 3.13969 30.4358 6.17346C30.4358 9.20724 32.8549 11.6343 35.8787 11.6343ZM37.5202 14.9282C40.8896 14.9282 43.5679 17.6153 43.5679 20.9958C43.5679 21.2558 43.827 21.5159 44.0862 21.5159C44.3454 21.5159 44.6046 21.2558 44.6046 20.9958C44.6046 17.0086 41.4078 13.8013 37.4337 13.8013H31.1271C31.1271 13.8013 31.2998 14.4948 31.2998 14.9282H37.4337H37.5202ZM14.021 14.9282C14.021 14.9282 14.1073 14.148 14.1937 13.8013H7.88715C3.91303 13.8013 0.716309 17.0086 0.716309 20.9958C0.716309 21.2558 0.975469 21.5159 1.23465 21.5159C1.49383 21.5159 1.75326 21.2558 1.75326 20.9958C1.75326 17.6153 4.43131 14.9282 7.80067 14.9282H13.9346H14.021Z" fill="black"></path></svg> 