<?xml version="1.0" encoding="UTF-8"?> <svg xmlns="http://www.w3.org/2000/svg" width="80" height="70" viewBox="0 0 80 70" fill="none"><path d="M36.3304 8.39631C37.5593 7.8679 38.9638 7.8679 40.1927 8.39631L58.5387 16.2346C60.2943 16.9392 61.5232 18.6125 61.5232 20.6381C61.5232 30.6781 57.3099 48.8205 40.2806 57.0109C38.9639 57.6274 37.4715 57.6274 36.2425 57.0109C19.1255 48.8205 15 30.6781 15 20.6381C15 18.6125 16.2289 16.9392 17.9845 16.2346L36.3304 8.39631Z" fill="#ABD8D4"></path><path d="M38.9634 11.0382C40.1923 10.5098 41.5968 10.5098 42.8257 11.0382L61.1716 18.8765C62.9272 19.5811 64.1564 21.2544 64.1564 23.28C64.1564 33.3199 59.9428 51.4624 42.9136 59.6528C41.5969 60.2693 40.1047 60.2693 38.8758 59.6528C21.7587 51.4624 17.6329 33.3199 17.6329 23.28C17.6329 21.2544 18.8618 19.5811 20.6174 18.8765L38.9634 11.0382ZM43.5281 9.45299C41.8603 8.74844 40.0169 8.74844 38.3491 9.45299L20.0032 17.2913C17.7209 18.2601 15.9652 20.5498 16.053 23.28C16.053 33.6722 20.3542 52.6071 38.2612 61.1499C40.0168 61.9425 42.0358 61.9425 43.7914 61.1499C61.6985 52.519 65.9997 33.5842 65.9997 23.28C65.9997 20.5498 64.3318 18.2601 62.0495 17.2913L43.7035 9.45299H43.5281ZM51.4282 29.2687C51.4282 29.2687 51.7793 28.3879 51.4282 28.1237C51.0771 27.8595 50.5504 27.7714 50.287 28.1237L37.5591 40.8939L31.5023 34.8171C31.5023 34.8171 30.6245 34.4648 30.3611 34.8171C30.0978 35.1694 30.01 35.6979 30.3611 35.9621L37.0322 42.6554C37.0322 42.6554 37.91 43.0077 38.1734 42.6554L51.5161 29.2687H51.4282Z" fill="black"></path></svg> 