<svg width="38" height="34" viewBox="0 0 38 34" fill="none" xmlns="http://www.w3.org/2000/svg">
<path d="M6.42857 2.125C6.42857 0.949609 7.38616 0 8.57143 0C9.7567 0 10.7143 0.949609 10.7143 2.125V4.25H19.2857V2.125C19.2857 0.949609 20.2433 0 21.4286 0C22.6138 0 23.5714 0.949609 23.5714 2.125V4.25H26.7857C28.5603 4.25 30 5.67773 30 7.4375V10.625H0V7.4375C0 5.67773 1.43973 4.25 3.21429 4.25H6.42857V2.125ZM27.8571 12.7965C21.8504 13.3344 17.1429 18.3414 17.1429 24.4375C17.1429 28.3887 19.125 31.8816 22.1518 34H3.21429C1.43973 34 0 32.5723 0 30.8125V12.75H27.8571V12.7965Z" fill="#B3D9C9"/>
<path d="M19 24.5C19 21.9804 20.0009 19.5641 21.7825 17.7825C23.5641 16.0009 25.9804 15 28.5 15C31.0196 15 33.4359 16.0009 35.2175 17.7825C36.9991 19.5641 38 21.9804 38 24.5C38 27.0196 36.9991 29.4359 35.2175 31.2175C33.4359 32.9991 31.0196 34 28.5 34C25.9804 34 23.5641 32.9991 21.7825 31.2175C20.0009 29.4359 19 27.0196 19 24.5ZM28.5 19.2222C27.9194 19.2222 27.4444 19.6972 27.4444 20.2778V23.4444H24.2778C23.6972 23.4444 23.2222 23.9194 23.2222 24.5C23.2222 25.0806 23.6972 25.5556 24.2778 25.5556H27.4444V28.7222C27.4444 29.3028 27.9194 29.7778 28.5 29.7778C29.0806 29.7778 29.5556 29.3028 29.5556 28.7222V25.5556H32.7222C33.3028 25.5556 33.7778 25.0806 33.7778 24.5C33.7778 23.9194 33.3028 23.4444 32.7222 23.4444H29.5556V20.2778C29.5556 19.6972 29.0806 19.2222 28.5 19.2222Z" fill="#007749"/>
</svg>
