<?xml version="1.0" encoding="UTF-8"?> <svg xmlns="http://www.w3.org/2000/svg" width="80" height="70" viewBox="0 0 80 70" fill="none"><path d="M25.5182 49.5746C25.9571 49.2223 26.5715 49.134 27.0981 49.3982C30.2582 50.5432 33.6815 51.1597 37.3682 51.1597C51.5008 51.1597 62.2979 41.9122 62.2979 31.0796C62.2979 20.247 51.5008 11 37.3682 11C23.2357 11 12.4388 20.247 12.4388 31.0796C12.4388 35.3069 14.1068 39.2701 17.0035 42.6167C17.2668 42.969 17.4423 43.4095 17.4423 43.8498C17.179 46.7561 16.1256 49.3103 14.9845 51.1597C14.37 52.2166 13.7555 53.0089 13.2288 53.6254C13.2288 53.6254 12.7899 54.1539 12.7021 54.242C12.7021 54.242 12.6144 54.4183 12.5267 54.4183C15.1601 54.4183 17.9691 53.6255 20.3392 52.5686C22.6215 51.5999 24.5525 50.3672 25.6936 49.5746H25.5182Z" fill="#E7D090"></path><path d="M29.4679 51.5124C29.9068 51.1601 30.5212 51.0718 31.0478 51.336C34.2079 52.4809 37.6314 53.0975 41.3182 53.0975C55.4507 53.0975 66.2476 43.8505 66.2476 33.0179C66.2476 22.1854 55.4507 12.9378 41.3182 12.9378C27.1857 12.9378 16.3888 22.1854 16.3888 33.0179C16.3888 37.2453 18.0565 41.2084 20.9532 44.555C21.2166 44.9073 21.3923 45.3478 21.3923 45.7881C21.1289 48.6944 20.0756 51.2481 18.9345 53.0975C18.32 54.1544 17.7054 54.9473 17.1788 55.5638C17.1788 55.5638 16.7399 56.0922 16.6521 56.1803C16.6521 56.1803 16.5644 56.3561 16.4766 56.3561C19.11 56.3561 21.9188 55.5638 24.2889 54.507C26.5712 53.5382 28.5025 52.305 29.6436 51.5124H29.4679ZM15.1597 55.2111C15.1597 55.2111 15.1599 55.1234 15.3355 55.0354C15.4232 54.9473 15.5988 54.683 15.8621 54.4188C16.301 53.8904 16.8276 53.0977 17.4421 52.1289C18.4954 50.3675 19.461 48.0777 19.6366 45.5237C16.4765 42.0009 14.6331 37.5975 14.6331 32.9298C14.6331 20.9523 26.5711 11.1763 41.2303 11.1763C55.8895 11.1763 67.8276 20.8642 67.8276 32.9298C67.8276 44.9953 55.8895 54.6827 41.2303 54.6827C37.368 54.6827 33.6814 53.9785 30.4336 52.8336C29.2047 53.7143 27.1856 54.9472 24.8156 56.004C22.3577 57.0608 19.2854 58.0294 16.3009 58.0294C15.5987 58.0294 14.9843 57.5891 14.7209 56.9726C14.4576 56.3561 14.6332 55.6519 15.0721 55.1235L15.1597 55.2111Z" fill="black"></path></svg> 