<?xml version="1.0" encoding="UTF-8"?> <svg xmlns="http://www.w3.org/2000/svg" width="80" height="70" viewBox="0 0 80 70" fill="none"><path d="M49.2754 56.7034C49.2754 57.496 48.6609 58.1123 47.8708 58.1123H7.40451C6.61449 58.1123 6 57.496 6 56.7034C6 47.368 13.5492 39.7936 22.8538 39.7936H32.3339C32.9484 39.7936 33.6506 39.7937 34.2651 39.8818" fill="#FFABDA"></path><path d="M27.6817 31.4268C34.1295 31.4268 39.3563 26.1825 39.3563 19.7134C39.3563 13.2444 34.1295 8 27.6817 8C21.2339 8 16.0071 13.2444 16.0071 19.7134C16.0071 26.1825 21.2339 31.4268 27.6817 31.4268Z" fill="#FFABDA"></path><path d="M19.5181 22.3545C19.5181 15.9254 24.697 10.6411 31.1927 10.6411C37.6884 10.6411 42.8675 15.8374 42.8675 22.3545C42.8675 28.8717 37.6884 34.0679 31.1927 34.0679C24.697 34.0679 19.5181 28.8717 19.5181 22.3545ZM44.5353 22.3545C44.5353 14.9567 38.5662 8.96774 31.1927 8.96774C23.8192 8.96774 17.8502 14.9567 17.8502 22.3545C17.8502 29.7524 23.8192 35.7413 31.1927 35.7413C38.5662 35.7413 44.5353 29.7524 44.5353 22.3545ZM9.51105 59.3439C9.51105 50.0085 17.0602 42.4347 26.3649 42.4347H35.845C36.4594 42.4347 37.1617 42.4342 37.7761 42.5223C37.7761 41.9058 37.7761 41.3773 37.7761 40.8489C37.1617 40.8489 36.4596 40.7613 35.7574 40.7613H26.277C16.0068 40.7613 7.75562 49.1278 7.75562 59.3439C7.75562 61.0172 9.15988 62.4261 10.8277 62.4261H51.2943C52.9621 62.4261 54.3666 61.0172 54.3666 59.3439V59.0794C53.84 59.0794 53.2255 59.0794 52.6988 59.0794V59.432C52.6988 60.2247 52.0843 60.8409 51.2943 60.8409H10.8277C10.0377 60.8409 9.42345 60.2247 9.42345 59.432L9.51105 59.3439ZM54.4542 30.7212C60.8622 30.7212 66.1291 35.9175 66.1291 42.4347C66.1291 48.9518 60.9499 54.1475 54.4542 54.1475C47.9585 54.1475 42.7796 48.9518 42.7796 42.4347C42.7796 35.9175 47.9585 30.7212 54.4542 30.7212ZM54.4542 55.7327C57.8776 55.7327 60.9499 54.4997 63.2322 52.386L72.9759 62.1622C72.9759 62.1622 73.8537 62.5145 74.1171 62.1622C74.3804 61.8099 74.4682 61.2814 74.1171 61.0172L64.3734 51.2416C66.4801 48.8637 67.7091 45.7813 67.7091 42.4347C67.7091 35.0368 61.7401 29.0479 54.3666 29.0479C46.9931 29.0479 41.0239 35.0368 41.0239 42.4347C41.0239 49.8325 46.9931 55.8209 54.3666 55.8209L54.4542 55.7327Z" fill="black"></path></svg> 