<?xml version="1.0" encoding="UTF-8"?>
<svg xmlns="http://www.w3.org/2000/svg" viewBox="0 0 38 34">
  <g id="uuid-9ab4ee05-0d5b-4046-aa5c-0840ecb08ea4" data-name="Layer 1">
    <path d="M6.43,2.12c0-1.18.96-2.12,2.14-2.12s2.14.95,2.14,2.12v2.12h8.57v-2.12c0-1.18.96-2.12,2.14-2.12s2.14.95,2.14,2.12v2.12h3.21c1.77,0,3.21,1.43,3.21,3.19v3.19H0v-3.19c0-1.76,1.44-3.19,3.21-3.19h3.21v-2.12ZM27.86,12.8c-6.01.54-10.71,5.54-10.71,11.64,0,3.95,1.98,7.44,5.01,9.56H3.21c-1.77,0-3.21-1.43-3.21-3.19V12.75h27.86v.05Z" style="fill: #b3d9c9;"/>
    <path d="M19,24.33c0-2.52,1-4.94,2.78-6.72,1.78-1.78,4.2-2.78,6.72-2.78s4.94,1,6.72,2.78c1.78,1.78,2.78,4.2,2.78,6.72s-1,4.94-2.78,6.72c-1.78,1.78-4.2,2.78-6.72,2.78s-4.94-1-6.72-2.78c-1.78-1.78-2.78-4.2-2.78-6.72Z" style="fill: #007749;"/>
  </g>
  <g id="uuid-d8530bdc-19e4-411a-8612-922fafa2e5fb" data-name="Layer 2">
    <g>
      <g>
        <path d="M33.54,23.99c.18,0,.33.15.33.34,0,3.02-2.4,5.46-5.35,5.46-1.55,0-2.94-.67-3.92-1.74-.12-.14-.12-.35.02-.48.13-.13.34-.12.47.02.86.94,2.08,1.53,3.43,1.53,2.59,0,4.69-2.14,4.69-4.78,0-.19.15-.34.33-.34ZM23.17,24.33c0-3.02,2.4-5.46,5.35-5.46,1.43,0,2.74.58,3.7,1.51.13.13.14.34.01.48-.13.13-.34.14-.47.01-.84-.82-1.98-1.33-3.24-1.33-2.59,0-4.69,2.14-4.69,4.78,0,.19-.15.34-.33.34s-.33-.15-.33-.34Z" style="fill: #fff; fill-rule: evenodd; stroke: #fff; stroke-width: .75px;"/>
        <path d="M30.6,26.24c.14.14.37.14.51,0l1.92-1.9,1.92,1.9c.14.14.37.14.51,0,.14-.14.14-.37,0-.51l-2.17-2.15c-.14-.14-.37-.14-.51,0l-2.17,2.15c-.14.14-.14.37,0,.51Z" style="fill: #fff; fill-rule: evenodd; stroke: #fff; stroke-width: .75px;"/>
      </g>
      <path d="M21.61,22.98c.15-.12.36-.1.47.05l1.37,1.81,1.37-1.81c.12-.15.33-.18.47-.05.15.12.17.35.05.5l-1.63,2.16c-.06.08-.16.13-.26.13s-.2-.05-.26-.13l-1.63-2.16c-.12-.15-.09-.38.05-.5Z" style="fill: #fff; fill-rule: evenodd; stroke: #fff; stroke-width: .75px;"/>
    </g>
  </g>
</svg>