<?xml version="1.0" encoding="UTF-8"?> <svg xmlns="http://www.w3.org/2000/svg" width="80" height="70" viewBox="0 0 80 70" fill="none"><path d="M14 28.6764V54.8822C14 57.7057 16.27 60 19.0636 60H52.9364C55.73 60 58 57.7057 58 54.8822V28.6764L36.0001 9L14 28.6764Z" fill="#FF9E80"></path><path d="M39.5056 8.11822C39.5056 8.11822 40.3046 7.85223 40.6597 8.11822L70.8422 34.8056C70.8422 34.8056 71.1973 35.6923 70.8422 36.047C70.4871 36.4016 69.9546 36.4016 69.5995 36.047L64.1843 31.2589V56.0846C64.1843 59.8971 61.0772 63 57.26 63H22.8164C18.9991 63 15.8921 59.8971 15.8921 56.0846V31.2589L10.4771 36.047C10.4771 36.047 9.58929 36.3129 9.2342 36.047C8.87912 35.781 8.96789 35.1602 9.2342 34.8056L39.417 8.11822H39.5056ZM17.7565 29.7518V56.0846C17.7565 58.9218 20.0645 61.2267 22.9052 61.2267H57.3489C60.1896 61.2267 62.4976 58.9218 62.4976 56.0846V29.7518L40.1271 9.98031L17.7565 29.7518ZM40.1271 37.1996C42.9678 37.1996 45.2757 34.8942 45.2757 32.0571C45.2757 29.2199 42.9678 26.9145 40.1271 26.9145C37.2863 26.9145 34.9784 29.2199 34.9784 32.0571C34.9784 34.8942 37.2863 37.1996 40.1271 37.1996ZM40.1271 25.1412C43.9443 25.1412 47.0513 28.2446 47.0513 32.0571C47.0513 35.8695 43.9443 38.9724 40.1271 38.9724C36.3098 38.9724 33.2028 35.8695 33.2028 32.0571C33.2028 28.2446 36.3098 25.1412 40.1271 25.1412ZM29.7406 50.9421H50.4247C50.4247 47.1296 47.3176 44.0262 43.5004 44.0262H36.5762C32.759 44.0262 29.652 47.1296 29.652 50.9421H29.7406ZM28.0539 50.9421C28.0539 46.1544 31.8711 42.3416 36.6648 42.3416H43.589C48.3827 42.3416 52.1999 46.1544 52.1999 50.9421C52.1999 51.9174 51.4012 52.6267 50.5135 52.6267H29.8294C28.8529 52.6267 28.1427 51.8287 28.1427 50.9421H28.0539Z" fill="black"></path></svg> 